<svg width="48" height="48" viewBox="0 0 48 48" fill="none" xmlns="http://www.w3.org/2000/svg">
    <rect width="48" height="48" fill="#F036A4"/>
    <path d="M33.833 22.1666C28.4997 18.9999 19.583 18.6666 14.4997 20.2499C13.6663 20.4999 12.833 19.9999 12.583 19.2499C12.333 18.4166 12.833 17.5833 13.583 17.3333C19.4997 15.5833 29.2497 15.9166 35.4163 19.5833C36.1663 19.9999 36.4163 20.9999 35.9997 21.7499C35.583 22.3333 34.583 22.5833 33.833 22.1666ZM33.6663 26.8333C33.2497 27.4166 32.4997 27.6666 31.9163 27.2499C27.4163 24.4999 20.583 23.6666 15.333 25.3333C14.6663 25.4999 13.9163 25.1666 13.7497 24.4999C13.583 23.8333 13.9163 23.0833 14.583 22.9166C20.6663 21.0833 28.1663 21.9999 33.333 25.1666C33.833 25.4166 34.083 26.2499 33.6663 26.8333ZM31.6663 31.4166C31.333 31.9166 30.7497 32.0833 30.2497 31.7499C26.333 29.3333 21.4163 28.8333 15.583 30.1666C14.9997 30.3333 14.4997 29.9166 14.333 29.4166C14.1663 28.8333 14.583 28.3333 15.083 28.1666C21.4163 26.7499 26.9163 27.3333 31.2497 29.9999C31.833 30.2499 31.9163 30.9166 31.6663 31.4166ZM23.9997 7.33325C21.811 7.33325 19.6437 7.76435 17.6216 8.60193C15.5995 9.4395 13.7622 10.6672 12.2146 12.2148C9.08896 15.3404 7.33301 19.5796 7.33301 23.9999C7.33301 28.4202 9.08896 32.6594 12.2146 35.785C13.7622 37.3327 15.5995 38.5603 17.6216 39.3979C19.6437 40.2355 21.811 40.6666 23.9997 40.6666C28.4199 40.6666 32.6592 38.9106 35.7848 35.785C38.9104 32.6594 40.6663 28.4202 40.6663 23.9999C40.6663 21.8112 40.2352 19.644 39.3977 17.6219C38.5601 15.5998 37.3324 13.7624 35.7848 12.2148C34.2371 10.6672 32.3998 9.4395 30.3777 8.60193C28.3556 7.76435 26.1884 7.33325 23.9997 7.33325Z"
          fill="black"/>
</svg>
