<svg width="1108" height="115" viewBox="0 0 1108 115" fill="none" xmlns="http://www.w3.org/2000/svg">
    <path d="M926.258 2.31519C927.027 2.5503 927.049 3.64042 926.3 3.93966C917.729 7.25268 915.806 14.7337 914.331 22.5353C914.16 23.4544 912.835 23.4758 912.664 22.5353C911.103 14.7764 909.308 7.25266 900.63 3.98238C899.882 3.70452 899.882 2.61442 900.651 2.37931"
          fill="currentColor"/>
    <path d="M617.249 53.5071C616.522 53.8064 615.667 53.614 615.133 53.0369C613.957 51.7758 612.653 50.5575 612.247 49.0826C608.785 36.258 598.568 30.3373 588.052 24.5448C583.264 21.8944 579.01 16.7005 574.158 16.2302C568.131 15.6318 566.421 11.3996 566.827 8.40722C567.041 6.91102 568.943 3.38426 569.99 2.67891C574.949 -0.676867 582.216 -1.36088 587.859 4.04683C591.621 7.6591 596.58 10.224 599.743 14.2638C604.852 20.7616 609.511 27.7937 613.252 35.1679C615.774 40.1054 616.843 45.7696 618.382 51.1987C618.638 52.1391 618.168 53.1438 617.27 53.5071H617.249Z"
          fill="currentColor"/>
    <path d="M727.968 94.0752C725.125 93.1774 722.389 91.5316 719.825 90.1209C718.97 89.6934 718.093 89.2018 717.388 88.6889C716.49 88.1759 715.336 87.2995 713.156 87.1499C712.087 87.0858 710.783 87.385 709.779 88.0049C708.56 88.7316 706.059 92.0446 705.226 92.4935C705.162 92.5149 705.119 92.4935 705.162 92.4508C705.162 92.408 705.354 92.3225 705.333 92.3225C704.991 92.3653 703.815 92.1301 703.537 92.0874C702.212 91.8309 699.968 90.356 698.664 89.9499C696.014 89.0736 694.475 86.2949 691.012 86.4873C687.058 86.7865 684.129 88.2186 680.389 88.9881C677.867 89.672 674.981 90.2706 672.438 91.4248C671.989 91.6599 670.578 92.3652 670.215 92.4935C669.317 92.7286 668.547 92.7286 667.415 92.921C665.469 93.0279 663.097 95.0371 662.178 96.1913C659.314 98.9913 657.924 102.881 654.312 105.04C651.94 106.943 648.862 107.092 646.083 108.246C645.677 108.439 645.249 108.631 644.822 108.823C644.779 108.994 644.715 109.165 644.694 109.336C644.651 109.55 644.608 110.277 644.565 110.769C644.694 110.811 644.801 110.875 644.929 110.918C646.489 110.448 648.028 109.978 649.674 109.849C654.633 109.443 659.421 106.793 662.563 102.839C663.802 101.364 665.94 99.2691 667.479 98.4783C667.692 98.4142 667.778 98.4142 668.099 98.3928C669.189 98.3928 670.257 98.3928 671.412 98.2218C672.951 97.9653 674.083 97.3027 675.451 96.8752C679.448 95.9561 683.809 95.4004 687.998 94.8233C689.879 94.5027 690.691 94.4386 692.252 94.9943C693.833 95.4859 696.612 96.8752 698.899 97.5165C701.849 98.1577 704.734 98.1149 707.748 97.9439C710.227 97.7302 712.643 95.9348 713.797 94.0538C713.626 94.118 713.369 94.118 713.305 94.0538C713.434 93.6477 715.892 94.5882 716.661 94.695C720.444 95.2508 724.228 96.0416 728.011 94.9515C728.438 94.8447 728.417 94.2034 728.011 94.0966L727.968 94.0752Z"
          fill="currentColor"/>
    <path d="M379.459 94.0752C382.302 93.1774 385.038 91.5316 387.603 90.1209C388.458 89.6934 389.334 89.2018 390.039 88.6889C390.937 88.1759 392.091 87.2995 394.272 87.1499C395.34 87.0858 396.644 87.385 397.649 88.0049C398.867 88.7316 401.368 92.0446 402.201 92.4935C402.266 92.5149 402.308 92.4935 402.266 92.4508C402.266 92.408 402.073 92.3225 402.095 92.3225C402.437 92.3653 403.612 92.1301 403.89 92.0874C405.215 91.8309 407.46 90.356 408.763 89.9499C411.414 89.0736 412.953 86.2949 416.415 86.4873C420.37 86.7865 423.298 88.2186 427.038 88.9881C429.561 89.672 432.446 90.2706 434.99 91.4248C435.439 91.6599 436.849 92.3652 437.213 92.4935C438.11 92.7286 438.88 92.7286 440.013 92.921C441.958 93.0279 444.33 95.0371 445.249 96.1913C448.114 98.9913 449.503 102.881 453.115 105.04C455.488 106.943 458.566 107.092 461.344 108.246C461.75 108.439 462.178 108.631 462.605 108.823C462.648 108.994 462.712 109.165 462.734 109.336C462.776 109.55 462.819 110.277 462.862 110.769C462.734 110.811 462.627 110.875 462.499 110.918C460.938 110.448 459.399 109.978 457.753 109.849C452.795 109.443 448.007 106.793 444.865 102.839C443.625 101.364 441.488 99.2691 439.949 98.4783C439.735 98.4142 439.649 98.4142 439.329 98.3928C438.239 98.3928 437.17 98.3928 436.016 98.2218C434.477 97.9653 433.344 97.3027 431.976 96.8752C427.979 95.9561 423.619 95.4004 419.429 94.8233C417.548 94.5027 416.736 94.4386 415.176 94.9943C413.594 95.4859 410.815 96.8752 408.528 97.5165C405.579 98.1577 402.693 98.1149 399.679 97.9439C397.2 97.7302 394.785 95.9348 393.63 94.0538C393.801 94.118 394.058 94.118 394.122 94.0538C393.994 93.6477 391.536 94.5882 390.766 94.695C386.983 95.2508 383.2 96.0416 379.416 94.9515C378.989 94.8447 379.01 94.2034 379.416 94.0966L379.459 94.0752Z"
          fill="currentColor"/>
    <path d="M674.81 113.761C674.81 113.761 674.896 113.826 674.939 113.869C674.896 113.847 674.853 113.804 674.81 113.783C674.724 113.697 674.746 113.719 674.81 113.761Z"
          fill="currentColor"/>
    <path d="M554.899 27.9855C538.398 27.3229 524.484 40.1688 523.843 56.6698C523.18 73.1708 536.026 87.0855 552.527 87.7268C569.028 88.3894 582.943 75.5434 583.584 59.0424C584.246 42.5414 571.4 28.6267 554.899 27.9855ZM567.532 71.8029C567.168 72.4655 566.442 72.7861 565.736 72.6793C565.523 72.6579 565.309 72.5724 565.095 72.4655C561.141 70.2212 556.845 68.7463 552.292 68.1051C547.739 67.4639 543.208 67.6776 538.783 68.7677C537.821 69.0028 536.86 68.4044 536.624 67.4639C536.389 66.5021 536.988 65.5402 537.928 65.3051C542.78 64.1295 547.782 63.873 552.783 64.5784C557.785 65.2837 562.509 66.8868 566.848 69.3662C567.703 69.8578 568.002 70.9479 567.51 71.8029H567.532ZM571.443 63.9585C570.823 65.0913 569.434 65.4974 568.301 64.899C563.684 62.3982 558.661 60.7523 553.425 60.0256C548.167 59.2775 542.908 59.4912 537.779 60.6241C537.501 60.6882 537.223 60.6882 536.966 60.6668C536.026 60.5386 535.235 59.8332 535.021 58.8714C534.743 57.6103 535.534 56.392 536.795 56.1141C542.481 54.8744 548.295 54.6393 554.087 55.4515C559.88 56.2638 565.416 58.0805 570.524 60.8378C571.657 61.4577 572.063 62.847 571.465 63.9799L571.443 63.9585ZM575.804 55.1095C575.226 56.221 574.03 56.7767 572.875 56.6271C572.555 56.5843 572.255 56.4774 571.956 56.3278C566.57 53.5278 560.777 51.6683 554.707 50.8347C548.658 49.9797 542.566 50.1721 536.624 51.369C535.085 51.6896 533.568 50.685 533.247 49.1461C532.927 47.6071 533.931 46.0895 535.47 45.7689C542.053 44.4223 548.786 44.2299 555.498 45.1704C562.188 46.1109 568.622 48.1628 574.585 51.2621C575.975 51.9888 576.53 53.7202 575.804 55.1095Z"
          fill="currentColor"/>
    <path d="M490.499 53.5071C491.226 53.8064 492.081 53.614 492.615 53.0369C493.79 51.7758 495.094 50.5575 495.5 49.0826C498.963 36.258 509.18 30.3373 519.696 24.5448C524.484 21.8944 528.738 16.7005 533.59 16.2302C539.617 15.6318 541.327 11.3996 540.921 8.40722C540.707 6.91102 538.805 3.38426 537.758 2.67891C532.799 -0.676867 525.531 -1.36088 519.889 4.04683C516.127 7.6591 511.168 10.224 508.004 14.2638C502.896 20.7616 498.236 27.7937 494.496 35.1679C491.974 40.1054 490.905 45.7696 489.366 51.1987C489.11 52.1391 489.58 53.1438 490.477 53.5071H490.499Z"
          fill="currentColor"/>
    <path d="M490.499 60.432C491.226 60.1328 492.081 60.3251 492.615 60.9023C493.79 62.1633 495.094 63.3817 495.5 64.8565C498.963 77.6811 509.18 83.6018 519.696 89.3942C524.484 92.0447 528.738 97.2387 533.59 97.7089C539.617 98.3074 541.327 102.54 540.921 105.532C540.707 107.028 538.805 110.555 537.758 111.26C532.799 114.616 525.531 115.3 519.889 109.892C516.127 106.28 511.168 103.715 508.004 99.6753C502.896 93.1775 498.236 86.1453 494.496 78.7712C491.974 73.8337 490.905 68.1695 489.366 62.7404C489.11 61.7999 489.58 60.7954 490.477 60.432H490.499Z"
          fill="currentColor"/>
    <path d="M617.249 60.432C616.522 60.1328 615.667 60.3251 615.133 60.9023C613.957 62.1633 612.653 63.3817 612.247 64.8565C608.785 77.6811 598.568 83.6018 588.052 89.3942C583.264 92.0447 579.01 97.2387 574.158 97.7089C568.131 98.3074 566.421 102.54 566.827 105.532C567.041 107.028 568.943 110.555 569.99 111.26C574.949 114.616 582.216 115.3 587.859 109.892C591.621 106.28 596.58 103.715 599.743 99.6753C604.852 93.1775 609.511 86.1453 613.252 78.7712C615.774 73.8337 616.843 68.1695 618.382 62.7404C618.638 61.7999 618.168 60.7954 617.27 60.432H617.249Z"
          fill="currentColor"/>
    <path d="M912.236 61.8006C906.679 69.9229 899.989 74.1122 890.52 68.1488C891.353 63.4678 896.291 59.4495 900.651 60.9243C905.653 62.6129 909.949 63.1259 913.219 58.1243C913.925 58.5945 914.395 58.7655 914.652 59.0861C917.387 62.5487 920.615 62.9121 924.676 61.3731C930.041 59.3426 935.021 62.4846 936.389 68.2557C926.108 72.8939 924.249 72.3596 913.839 62.506C914.716 64.2587 915.336 66.2465 916.533 67.7427C921.342 73.813 921.342 75.2024 915.913 80.9521C915.143 81.7643 914.438 82.6406 913.369 83.8803C911.488 81.8925 909.693 80.1826 908.154 78.2803C906.123 75.7581 906.679 72.5306 909.137 69.1962C910.398 67.4862 911.445 65.6267 912.514 63.7885C912.899 63.1472 912.771 62.335 912.215 61.822L912.236 61.8006Z"
          fill="currentColor"/>
    <path d="M1057.13 114.168C1054.95 109.508 1052.67 103.844 1049.74 98.5429C1045.21 90.4207 1037.85 87.6207 1029.75 91.5108C1029.13 91.81 1028.34 91.8101 1027.44 91.981C1026.31 86.723 1031.61 85.2481 1033.11 81.7213C1026.55 78.6862 1017.59 80.332 1013.23 85.2695C1010.3 88.5825 1009.51 93.2635 1011.41 96.7048C1011.78 97.3674 1012.61 97.9017 1013.34 98.1155C1013.59 98.201 1014.32 97.1964 1014.6 96.5979C1016.01 93.5841 1019.71 92.2589 1022.7 93.7551C1024.81 94.8238 1025.76 98.8422 1024.49 101.514C1022.89 104.913 1019.28 106.858 1015.5 106.345C1010.3 105.661 1006.39 102.369 1005.73 98.1155C1004.57 90.6131 1008.61 83.5595 1015.32 79.7549C1022.4 75.7579 1029.82 75.3304 1036.61 78.6648C1042.45 81.529 1048.65 84.8633 1051.75 91.4039C1055.34 99.0132 1058.33 106.729 1057.15 114.168H1057.13Z"
          fill="currentColor"/>
    <path d="M1041.74 44.7646C1046.81 45.6623 1052.75 47.0516 1058.78 47.6928C1068.03 48.676 1074.55 44.2515 1076.03 35.3812C1076.13 34.6972 1076.58 34.0559 1076.97 33.2223C1081.93 35.317 1080.09 40.5111 1082.1 43.76C1088.36 40.1263 1092.17 31.8544 1090.63 25.4634C1089.6 21.1672 1086.22 17.8114 1082.31 17.4053C1081.56 17.3198 1080.64 17.7046 1080.05 18.1748C1079.83 18.3245 1080.24 19.5 1080.56 20.0771C1082.21 22.9627 1081.18 26.746 1078.23 28.3277C1076.13 29.4605 1072.31 27.9001 1070.86 25.3352C1069 22.0649 1069.49 18.0038 1072.07 15.1824C1075.62 11.3136 1080.56 10.0098 1084.41 11.9335C1091.2 15.3107 1094.67 22.6635 1093.92 30.3369C1093.13 38.4164 1089.22 44.7431 1082.57 48.3982C1076.88 51.5188 1070.58 54.6822 1063.44 53.4425C1055.17 52.0105 1047.13 50.0226 1041.7 44.7859L1041.74 44.7646Z"
          fill="currentColor"/>
    <path d="M1104.05 25.2073C1106.01 25.2073 1107.6 23.6188 1107.6 21.6592C1107.6 19.6996 1106.01 18.1111 1104.05 18.1111C1102.09 18.1111 1100.5 19.6996 1100.5 21.6592C1100.5 23.6188 1102.09 25.2073 1104.05 25.2073Z"
          fill="currentColor"/>
    <path d="M1104.35 35.9374C1106.31 35.9374 1107.9 34.3488 1107.9 32.3892C1107.9 30.4296 1106.31 28.8411 1104.35 28.8411C1102.39 28.8411 1100.8 30.4296 1100.8 32.3892C1100.8 34.3488 1102.39 35.9374 1104.35 35.9374Z"
          fill="currentColor"/>
    <path d="M788.841 44.7646C783.776 45.6623 777.834 47.0516 771.806 47.6928C762.551 48.676 756.032 44.2515 754.557 35.3812C754.45 34.6972 754.001 34.0559 753.616 33.2223C748.658 35.317 750.496 40.5111 748.487 43.76C742.224 40.1263 738.419 31.8544 739.958 25.4634C740.984 21.1672 744.361 17.8114 748.273 17.4053C749.021 17.3198 749.94 17.7046 750.539 18.1748C750.752 18.3245 750.346 19.5 750.026 20.0771C748.38 22.9627 749.406 26.746 752.355 28.3277C754.45 29.4605 758.276 27.9001 759.729 25.3352C761.589 22.0649 761.097 18.0038 758.511 15.1824C754.963 11.3136 750.026 10.0098 746.178 11.9335C739.381 15.3107 735.918 22.6635 736.667 30.3369C737.457 38.4164 741.369 44.7431 748.016 48.3982C753.702 51.5188 760.007 54.6822 767.146 53.4425C775.418 52.0105 783.455 50.0226 788.884 44.7859L788.841 44.7646Z"
          fill="currentColor"/>
    <path d="M726.535 25.2073C728.495 25.2073 730.084 23.6188 730.084 21.6592C730.084 19.6996 728.495 18.1111 726.535 18.1111C724.576 18.1111 722.987 19.6996 722.987 21.6592C722.987 23.6188 724.576 25.2073 726.535 25.2073Z"
          fill="currentColor"/>
    <path d="M726.236 35.9374C728.196 35.9374 729.784 34.3488 729.784 32.3892C729.784 30.4296 728.196 28.8411 726.236 28.8411C724.277 28.8411 722.688 30.4296 722.688 32.3892C722.688 34.3488 724.277 35.9374 726.236 35.9374Z"
          fill="currentColor"/>
    <path d="M830.885 53.1648C828.919 69.7085 833.429 74.9666 842.748 71.6536C840.974 62.9114 837.576 54.6182 837.939 46.5173C839.179 18.8589 828.62 7.61598 800.512 8.91982C791.749 9.32593 782.9 10.2878 777.385 1.09679C776.936 0.348691 776.017 0.0708295 775.227 0.434194H775.205C774.585 0.733435 774.222 1.37467 774.265 2.03727C774.457 5.43579 773.944 9.73208 775.718 11.1C779.95 14.3703 785.614 15.781 790.616 17.9184C789.953 19.2009 788.222 22.4712 786.234 26.2972C802.457 33.3935 809.126 7.65876 825.478 17.6406C820.583 22.5353 816.073 27.259 811.349 31.7476C791.899 50.1723 772.683 68.8535 752.741 86.7011C743.892 94.631 733.482 100.83 722.646 108.631C730.405 116.369 743.272 115.343 749.641 106.43C771.336 76.0139 799.615 52.3525 823.875 25.2499C825.072 23.9033 826.696 22.9628 828.662 21.4024C838.644 37.4118 813.636 44.3799 820.262 60.9023C824.366 57.9312 827.679 55.5373 831.014 53.1434C831.12 52.8441 831.227 52.5235 831.313 52.2243C831.163 52.5235 830.992 52.8441 830.843 53.1434L830.885 53.1648Z"
          fill="currentColor"/>
    <path d="M999.679 53.1648C1001.65 69.7085 997.135 74.9666 987.816 71.6536C989.59 62.9114 992.989 54.6182 992.625 46.5173C991.385 18.8589 1001.94 7.61598 1030.05 8.91982C1038.82 9.32593 1047.66 10.2878 1053.18 1.09679C1053.63 0.348691 1054.55 0.0708295 1055.34 0.434194H1055.36C1055.98 0.733435 1056.34 1.37467 1056.3 2.03727C1056.11 5.43579 1056.62 9.73208 1054.85 11.1C1050.61 14.3703 1044.95 15.781 1039.95 17.9184C1040.61 19.2009 1042.34 22.4712 1044.33 26.2972C1028.11 33.3935 1021.44 7.65876 1005.09 17.6406C1009.98 22.5353 1014.49 27.259 1019.21 31.7476C1038.67 50.1723 1057.88 68.8535 1077.82 86.7011C1086.67 94.631 1097.08 100.83 1107.92 108.631C1100.16 116.369 1087.29 115.343 1080.92 106.43C1059.23 76.0139 1030.95 52.3525 1006.69 25.2499C1005.49 23.9033 1003.87 22.9628 1001.9 21.4024C991.92 37.4118 1016.93 44.3799 1010.3 60.9023C1006.2 57.9312 1002.88 55.5373 999.55 53.1434C999.444 52.8441 999.337 52.5235 999.251 52.2243C999.401 52.5235 999.572 52.8441 999.721 53.1434L999.679 53.1648Z"
          fill="currentColor"/>
    <path d="M769.413 114.168C771.593 109.508 773.88 103.844 776.808 98.5429C781.34 90.4207 788.692 87.6207 796.793 91.5108C797.413 91.81 798.204 91.8101 799.102 91.981C800.235 86.723 794.934 85.2481 793.438 81.7213C800 78.6862 808.955 80.332 813.316 85.2695C816.244 88.5825 817.035 93.2635 815.133 96.7048C814.769 97.3674 813.936 97.9017 813.209 98.1155C812.952 98.201 812.226 97.1964 811.948 96.5979C810.537 93.5841 806.839 92.2589 803.847 93.7551C801.731 94.8238 800.79 98.8422 802.051 101.514C803.655 104.913 807.267 106.858 811.05 106.345C816.244 105.661 820.156 102.369 820.818 98.1155C821.972 90.6131 817.933 83.5595 811.221 79.7549C804.146 75.7579 796.729 75.3304 789.932 78.6648C784.097 81.529 777.898 84.8633 774.799 91.4039C771.208 99.0132 768.216 106.729 769.391 114.168H769.413Z"
          fill="currentColor"/>
    <path d="M934.829 33.7784C933.546 34.3342 932.242 34.8685 930.917 35.3815C928.929 36.151 921.021 37.3265 918.755 37.6899C917.515 37.8823 907.384 38.2671 905.845 38.0106C904.563 37.9037 903.301 37.754 902.062 37.5617C900.053 36.8777 898.022 35.6807 896.034 34.8899C894.709 34.3769 893.405 33.8425 892.123 33.2868L884.877 29.7814C879.148 26.6394 873.933 22.7492 869.68 17.4484C866.538 13.5155 864.144 8.98417 861.258 4.85892C858.565 1.01154 855.337 -1.76712 849.224 1.33216C851.105 6.16277 853.521 10.9506 854.824 16.0163C857.753 27.302 861.002 38.6304 862.412 50.1726C863.225 56.7986 860.446 63.7239 855.808 69.2599C855.145 70.0507 854.311 70.7775 853.884 71.6752C852.708 74.0691 851.64 76.5058 850.571 78.9425C850.208 79.7547 850.614 80.7165 851.469 81.0158L855.744 82.5119C856.898 82.9181 857.133 84.4357 856.15 85.1624C846.424 92.4511 836.122 100.189 825.2 108.375C823.105 109.935 824.067 113.248 826.674 113.462C849.801 115.129 865.768 106.772 874.361 85.3548C879.191 73.321 878.935 60.1758 875.985 47.4153C874.638 41.5587 872.565 35.8517 871.005 30.6364C879.02 35.638 886.651 41.3236 895.051 45.4275C898.407 47.0733 901.784 47.8642 905.097 47.971C905.375 47.971 905.631 47.971 905.909 47.971C906.187 47.971 906.443 47.971 906.721 47.971C910.034 47.8642 928.887 46.6672 932.584 45.342C941.369 42.1572 948.059 36.1296 956.075 31.128C954.514 36.322 952.462 42.0289 951.094 47.9068C948.145 60.6673 947.888 73.8126 952.719 85.8463C961.311 107.263 977.278 115.621 1000.41 113.954C1003.01 113.74 1003.95 110.427 1001.88 108.867C990.936 100.659 980.634 92.9426 970.93 85.654C969.968 84.9272 970.203 83.4097 971.336 83.0036L975.611 81.5073C976.444 81.2081 976.872 80.2676 976.509 79.434C975.419 76.9973 974.35 74.5607 973.196 72.1668C972.747 71.269 971.934 70.5423 971.272 69.7514C966.612 64.2369 963.855 57.2902 964.667 50.6642C966.078 39.1434 969.327 27.815 972.255 16.508C973.559 11.4423 975.974 6.65434 977.855 1.82373C971.742 -1.27555 968.515 1.50317 965.821 5.35055C962.936 9.49718 960.542 14.0071 957.4 17.94C953.168 23.2409 947.931 27.131 942.203 30.273L934.957 33.7784H934.829Z"
          fill="currentColor"/>
    <path d="M900.652 113.89C899.882 113.655 899.861 112.564 900.609 112.265C909.18 108.952 911.104 101.471 912.578 93.6695C912.749 92.7504 914.075 92.7291 914.246 93.6695C915.806 101.428 917.601 108.952 926.279 112.223C927.027 112.5 927.027 113.59 926.258 113.826"
          fill="currentColor"/>
    <path d="M203.612 2.31519C204.382 2.5503 204.403 3.64042 203.655 3.93966C195.084 7.25268 193.16 14.7337 191.685 22.5353C191.514 23.4544 190.189 23.4758 190.018 22.5353C188.458 14.7764 186.662 7.25266 177.984 3.98238C177.236 3.70452 177.236 2.61442 178.006 2.37931"
          fill="currentColor"/>
    <path d="M189.569 61.8006C184.012 69.9229 177.322 74.1122 167.853 68.1488C168.686 63.4678 173.624 59.4495 177.984 60.9243C182.986 62.6129 187.282 63.1259 190.552 58.1243C191.258 58.5945 191.728 58.7655 191.984 59.0861C194.72 62.5487 197.948 62.9121 202.009 61.3731C207.374 59.3426 212.354 62.4846 213.722 68.2557C203.441 72.8939 201.582 72.3596 191.172 62.506C192.049 64.2587 192.668 66.2465 193.865 67.7427C198.675 73.813 198.675 75.2024 193.246 80.9521C192.476 81.7643 191.771 82.6406 190.702 83.8803C188.821 81.8925 187.026 80.1826 185.487 78.2803C183.456 75.7581 184.012 72.5306 186.47 69.1962C187.731 67.4862 188.778 65.6267 189.847 63.7885C190.232 63.1472 190.103 62.335 189.548 61.822L189.569 61.8006Z"
          fill="currentColor"/>
    <path d="M334.466 114.168C332.286 109.508 329.999 103.844 327.07 98.5429C322.539 90.4207 315.186 87.6207 307.085 91.5108C306.465 91.81 305.674 91.8101 304.777 91.981C303.644 86.723 308.945 85.2481 310.441 81.7213C303.879 78.6862 294.923 80.332 290.563 85.2695C287.635 88.5825 286.844 93.2635 288.746 96.7048C289.109 97.3674 289.943 97.9017 290.67 98.1155C290.926 98.201 291.653 97.1964 291.931 96.5979C293.342 93.5841 297.039 92.2589 300.032 93.7551C302.148 94.8238 303.088 98.8422 301.827 101.514C300.224 104.913 296.612 106.858 292.829 106.345C287.635 105.661 283.723 102.369 283.06 98.1155C281.906 90.6131 285.946 83.5595 292.658 79.7549C299.732 75.7579 307.149 75.3304 313.946 78.6648C319.782 81.529 325.98 84.8633 329.079 91.4039C332.67 99.0132 335.663 106.729 334.487 114.168H334.466Z"
          fill="currentColor"/>
    <path d="M318.756 39.0367C323.822 39.9344 329.764 41.3238 335.791 41.965C345.046 42.9482 351.566 38.5238 353.04 29.6534C353.147 28.9694 353.596 28.3282 353.981 27.4946C358.94 29.5893 357.102 34.7832 359.111 38.0321C365.373 34.3985 369.178 26.1266 367.639 19.7357C366.613 15.4394 363.236 12.0837 359.325 11.6776C358.576 11.5921 357.657 11.9768 357.059 12.447C356.845 12.5966 357.251 13.7722 357.572 14.3493C359.218 17.2349 358.192 21.0181 355.242 22.5998C353.147 23.7327 349.321 22.1723 347.868 19.6074C346.008 16.3371 346.5 12.276 349.086 9.4546C352.634 5.58584 357.572 4.28203 361.419 6.20572C368.216 9.58287 371.679 16.9356 370.931 24.609C370.14 32.6885 366.228 39.0154 359.581 42.6704C353.895 45.791 347.59 48.9544 340.451 47.7147C332.179 46.2826 324.142 44.2948 318.713 39.0581L318.756 39.0367Z"
          fill="currentColor"/>
    <path d="M381.084 19.4789C383.043 19.4789 384.632 17.8903 384.632 15.9307C384.632 13.9711 383.043 12.3826 381.084 12.3826C379.124 12.3826 377.536 13.9711 377.536 15.9307C377.536 17.8903 379.124 19.4789 381.084 19.4789Z"
          fill="currentColor"/>
    <path d="M381.362 30.209C383.321 30.209 384.91 28.6205 384.91 26.6609C384.91 24.7014 383.321 23.1128 381.362 23.1128C379.402 23.1128 377.813 24.7014 377.813 26.6609C377.813 28.6205 379.402 30.209 381.362 30.209Z"
          fill="currentColor"/>
    <path d="M66.175 39.0367C61.1092 39.9344 55.1672 41.3238 49.1396 41.965C39.8845 42.9482 33.3653 38.5238 31.8905 29.6534C31.7836 28.9694 31.3348 28.3282 30.95 27.4946C25.9912 29.5893 27.8294 34.7832 25.8202 38.0321C19.5575 34.3985 15.7528 26.1266 17.2918 19.7357C18.3178 15.4394 21.6949 12.0837 25.6064 11.6776C26.3545 11.5921 27.2736 11.9768 27.8721 12.447C28.0858 12.5966 27.6797 13.7722 27.3591 14.3493C25.7133 17.2349 26.7393 21.0181 29.6889 22.5998C31.7836 23.7327 35.6096 22.1723 37.0631 19.6074C38.9226 16.3371 38.431 12.276 35.8447 9.4546C32.2966 5.58584 27.3591 4.28203 23.5117 6.20572C16.7147 9.58287 13.252 16.9356 14.0001 24.609C14.791 32.6885 18.7025 39.0154 25.3499 42.6704C31.0355 45.791 37.3409 48.9544 44.48 47.7147C52.7519 46.2826 60.7886 44.2948 66.2177 39.0581L66.175 39.0367Z"
          fill="currentColor"/>
    <path d="M3.86876 19.4789C5.82835 19.4789 7.4169 17.8903 7.4169 15.9307C7.4169 13.9711 5.82835 12.3826 3.86876 12.3826C1.90918 12.3826 0.320618 13.9711 0.320618 15.9307C0.320618 17.8903 1.90918 19.4789 3.86876 19.4789Z"
          fill="currentColor"/>
    <path d="M3.56957 30.209C5.52915 30.209 7.11771 28.6205 7.11771 26.6609C7.11771 24.7014 5.52915 23.1128 3.56957 23.1128C1.60998 23.1128 0.0214233 24.7014 0.0214233 26.6609C0.0214233 28.6205 1.60998 30.209 3.56957 30.209Z"
          fill="currentColor"/>
    <path d="M108.24 53.1645C106.273 69.7083 110.783 74.9663 120.103 71.6533C118.328 62.9112 114.93 54.6179 115.293 46.5171C116.533 18.8586 105.974 7.61574 77.8668 8.91957C69.1033 9.32568 60.2543 10.2875 54.7397 1.09655C54.2909 0.348447 53.3718 0.0705854 52.5809 0.433949H52.5595C51.9397 0.73319 51.5763 1.37442 51.6191 2.03703C51.8115 5.43555 51.2985 9.73184 53.0725 11.0998C57.3047 14.3701 62.9689 15.7807 67.9705 17.9182C67.3078 19.2006 65.5765 22.4709 63.5887 26.2969C79.8119 33.3932 86.4807 7.65852 102.832 17.6403C97.9373 22.5351 93.4273 27.2588 88.7036 31.7474C69.2529 50.1721 50.0374 68.8533 30.0951 86.7009C21.2461 94.6308 10.8368 100.829 0 108.631C7.75889 116.368 20.6263 115.342 26.9958 106.429C48.6908 76.0137 76.9691 52.3523 101.229 25.2496C102.426 23.903 104.05 22.9625 106.017 21.4022C115.999 37.4116 90.9906 44.3796 97.6167 60.902C101.721 57.931 105.034 55.5371 108.368 53.1431C108.475 52.8439 108.582 52.5233 108.667 52.224C108.518 52.5233 108.347 52.8439 108.197 53.1431L108.24 53.1645Z"
          fill="currentColor"/>
    <path d="M277.033 53.1648C279 69.7085 274.49 74.9666 265.17 71.6536C266.944 62.9114 270.343 54.6182 269.98 46.5173C268.74 18.8589 279.299 7.61598 307.406 8.91982C316.169 9.32593 325.018 10.2878 330.533 1.09679C330.982 0.348691 331.901 0.0708295 332.692 0.434194H332.713C333.333 0.733435 333.696 1.37467 333.654 2.03727C333.461 5.43579 333.974 9.73208 332.2 11.1C327.968 14.3703 322.304 15.781 317.302 17.9184C317.965 19.2009 319.696 22.4712 321.684 26.2972C305.461 33.3935 298.792 7.65876 282.441 17.6406C287.336 22.5353 291.845 27.259 296.569 31.7476C316.02 50.1723 335.235 68.8535 355.178 86.7011C364.027 94.631 374.436 100.83 385.273 108.631C377.514 116.369 364.647 115.343 358.277 106.43C336.582 76.0139 308.304 52.3525 284.044 25.2499C282.847 23.9033 281.222 22.9628 279.256 21.4024C269.274 37.4118 294.282 44.3799 287.656 60.9023C283.552 57.9312 280.239 55.5373 276.905 53.1434C276.798 52.8441 276.691 52.5235 276.606 52.2243C276.755 52.5235 276.926 52.8441 277.076 53.1434L277.033 53.1648Z"
          fill="currentColor"/>
    <path d="M46.7671 114.168C48.9472 109.508 51.2343 103.844 54.1626 98.5429C58.694 90.4207 66.0467 87.6207 74.1476 91.5108C74.7675 91.81 75.5583 91.8101 76.456 91.981C77.5889 86.723 72.288 85.2481 70.7918 81.7213C77.3538 78.6862 86.3096 80.332 90.67 85.2695C93.5983 88.5825 94.3891 93.2635 92.4868 96.7048C92.1234 97.3674 91.2898 97.9017 90.5631 98.1155C90.3066 98.201 89.5799 97.1964 89.302 96.5979C87.8913 93.5841 84.1936 92.2589 81.2012 93.7551C79.0851 94.8238 78.1446 98.8422 79.4057 101.514C81.0088 104.913 84.6211 106.858 88.4043 106.345C93.5983 105.661 97.5098 102.369 98.1724 98.1155C99.3266 90.6131 95.2868 83.5595 88.5753 79.7549C81.5004 75.7579 74.0835 75.3304 67.2864 78.6648C61.4512 81.529 55.2527 84.8633 52.1534 91.4039C48.5625 99.0132 45.5701 106.729 46.7457 114.168H46.7671Z"
          fill="currentColor"/>
    <path d="M212.162 33.7784C210.88 34.3342 209.576 34.8685 208.25 35.3815C206.263 36.151 198.354 37.3265 196.088 37.6899C194.849 37.8823 184.717 38.2671 183.178 38.0106C181.896 37.9037 180.635 37.754 179.395 37.5617C177.386 36.8777 175.355 35.6807 173.368 34.8899C172.042 34.3769 170.738 33.8425 169.456 33.2868L162.21 29.7814C156.482 26.6394 151.266 22.7492 147.013 17.4484C143.871 13.5155 141.477 8.98417 138.591 4.85892C135.898 1.01154 132.671 -1.76712 126.558 1.33216C128.439 6.16277 130.854 10.9506 132.158 16.0163C135.086 27.302 138.335 38.6304 139.746 50.1726C140.558 56.7986 137.779 63.7239 133.141 69.2599C132.478 70.0507 131.645 70.7775 131.217 71.6752C130.042 74.0691 128.973 76.5058 127.904 78.9425C127.541 79.7547 127.947 80.7165 128.802 81.0158L133.077 82.5119C134.231 82.9181 134.466 84.4357 133.483 85.1624C123.758 92.4511 113.455 100.189 102.533 108.375C100.438 109.935 101.4 113.248 104.008 113.462C127.135 115.129 143.101 106.772 151.694 85.3548C156.525 73.321 156.268 60.1758 153.318 47.4153C151.972 41.5587 149.898 35.8517 148.338 30.6364C156.354 35.638 163.984 41.3236 172.384 45.4275C175.74 47.0733 179.117 47.8642 182.43 47.971C182.708 47.971 182.965 47.971 183.242 47.971C183.52 47.971 183.777 47.971 184.055 47.971C187.368 47.8642 206.22 46.6672 209.918 45.342C218.703 42.1572 225.393 36.1296 233.408 31.128C231.848 36.322 229.796 42.0289 228.428 47.9068C225.478 60.6673 225.222 73.8126 230.052 85.8463C238.645 107.263 254.611 115.621 277.739 113.954C280.346 113.74 281.287 110.427 279.213 108.867C268.27 100.659 257.967 92.9426 248.263 85.654C247.301 84.9272 247.537 83.4097 248.669 83.0036L252.944 81.5073C253.778 81.2081 254.205 80.2676 253.842 79.434C252.752 76.9973 251.683 74.5607 250.529 72.1668C250.08 71.269 249.268 70.5423 248.605 69.7514C243.946 64.2369 241.188 57.2902 242.001 50.6642C243.411 39.1434 246.66 27.815 249.588 16.508C250.892 11.4423 253.308 6.65434 255.189 1.82373C249.076 -1.27555 245.848 1.50317 243.155 5.35055C240.269 9.49718 237.875 14.0071 234.733 17.94C230.501 23.2409 225.264 27.131 219.536 30.273L212.29 33.7784H212.162Z"
          fill="currentColor"/>
    <path d="M178.006 113.89C177.236 113.655 177.215 112.564 177.963 112.265C186.534 108.952 188.458 101.471 189.933 93.6695C190.104 92.7504 191.429 92.7291 191.6 93.6695C193.16 101.428 194.956 108.952 203.634 112.223C204.382 112.5 204.382 113.59 203.612 113.826"
          fill="currentColor"/>
    <path d="M643.732 16.7001C636.4 13.8145 634.69 7.42358 633.408 0.712032C633.237 -0.142943 632.018 -0.142943 631.847 0.712032C630.501 7.38083 628.898 13.8359 621.481 16.6573C620.797 16.9138 620.818 17.9184 621.524 18.1535C628.513 20.4833 630.629 26.1262 631.847 32.5385C631.997 33.3935 633.237 33.3935 633.386 32.5385C634.647 26.1903 636.593 20.4192 643.667 18.1962C644.373 17.9825 644.416 16.9779 643.732 16.7214V16.7001Z"
          fill="currentColor"/>
    <path d="M485.967 16.7001C478.636 13.8145 476.926 7.42358 475.643 0.712032C475.472 -0.142943 474.254 -0.142943 474.083 0.712032C472.737 7.38083 471.133 13.8359 463.717 16.6573C463.033 16.9138 463.054 17.9184 463.759 18.1535C470.749 20.4833 472.865 26.1262 474.083 32.5385C474.233 33.3935 475.473 33.3935 475.622 32.5385C476.883 26.1903 478.828 20.4192 485.903 18.1962C486.609 17.9825 486.651 16.9779 485.967 16.7214V16.7001Z"
          fill="currentColor"/>
    <path d="M716.02 46.0688C711.702 44.3803 706.979 43.6963 702.02 42.4566C709.159 32.0686 709.736 29.7816 706.059 26.6182C704.008 28.7128 702.041 30.9358 699.84 32.8808C696.099 36.2152 692.508 39.8702 688.276 42.4352C685.519 44.1237 681.735 44.1238 678.316 44.9146C680.025 40.0199 682.056 35.8733 682.868 31.4915C684.108 24.7372 677.76 15.2898 671.07 13.0027C666.282 11.3783 661.473 9.39041 656.514 12.5752C649.631 16.9997 648.926 22.1723 654.889 26.6182C656.492 27.8151 659.421 30.2304 661.216 29.5037C663.268 29.632 667.372 28.4991 665.256 23.6899L671.07 25.9983C673.122 26.8105 674.447 28.8197 674.383 31.0213C674.276 35.5099 673.549 39.6565 670.364 43.0764C667.65 45.9834 664.807 48.8903 661.622 51.2415C659.164 53.0369 658.373 56.927 654.526 56.9057C654.355 56.9057 654.034 57.3117 654.034 57.5255C653.949 61.1377 650.101 60.8813 648.456 62.976C646.532 65.4126 644.117 67.4859 641.894 69.6875C639.671 71.889 637.426 74.0479 634.84 76.5914C634.605 74.7319 634.562 66.2676 634.626 56.927C634.626 56.7987 634.519 56.7346 634.413 56.7987C632.916 57.44 632.104 56.6919 630.886 57.3118C628.471 72.7654 625.628 91.2756 624.025 96.7688C623.02 100.167 620.818 103.202 619.6 106.558C618.831 108.653 618.895 111.068 618.574 113.334C619.023 113.484 619.493 113.633 619.942 113.783C620.733 112.8 621.759 111.923 622.251 110.812C627.145 99.975 635.802 92.8359 645.655 86.9366C647.451 85.8679 650.059 86.2099 652.26 85.7396C656.492 84.8419 660.682 83.8373 665.299 82.79C661.943 77.5319 657.433 78.2586 653.65 79.4129C649.353 80.7167 645.378 83.1747 641.445 85.4618C637.661 87.6633 634.092 90.271 629.881 93.0497C635.631 82.6618 642.065 73.5563 651.298 66.802C656.385 63.0829 661.494 59.0644 667.201 56.6064C674.575 53.4216 682.612 53.2292 690.413 55.8797C695.287 57.5255 700.096 59.3209 704.905 61.1591C705.675 61.4584 706.188 62.3989 707.171 62.7195C708.966 67.486 710.826 69.1104 714.823 68.0631C713.797 64.4294 712.771 60.7958 711.745 57.1835C721.192 67.2081 730.619 77.2113 740.665 87.8985C742.332 81.2297 740.9 76.2494 739.04 71.2264C734.787 59.6415 727.648 50.6857 715.977 46.1116L716.02 46.0688Z"
          fill="currentColor"/>
    <path d="M391.407 46.0688C395.725 44.3803 400.449 43.6963 405.408 42.4566C398.269 32.0686 397.691 29.7816 401.368 26.6182C403.42 28.7128 405.386 30.9358 407.588 32.8808C411.328 36.2152 414.919 39.8702 419.151 42.4352C421.909 44.1237 425.692 44.1238 429.112 44.9146C427.402 40.0199 425.371 35.8733 424.559 31.4915C423.319 24.7372 429.667 15.2898 436.358 13.0027C441.145 11.3783 445.955 9.39041 450.914 12.5752C457.796 16.9997 458.501 22.1723 452.538 26.6182C450.935 27.8151 448.007 30.2304 446.211 29.5037C444.159 29.632 440.055 28.4991 442.171 23.6899L436.358 25.9983C434.306 26.8105 432.98 28.8197 433.045 31.0213C433.151 35.5099 433.878 39.6565 437.063 43.0764C439.778 45.9834 442.62 48.8903 445.805 51.2415C448.263 53.0369 449.054 56.927 452.901 56.9057C453.072 56.9057 453.393 57.3117 453.393 57.5255C453.478 61.1377 457.326 60.8813 458.972 62.976C460.895 65.4126 463.311 67.4859 465.534 69.6875C467.757 71.889 470.001 74.0479 472.587 76.5914C472.822 74.7319 472.865 66.2676 472.801 56.927C472.801 56.7987 472.908 56.7346 473.015 56.7987C474.511 57.44 475.323 56.6919 476.541 57.3118C478.957 72.7654 481.799 91.2756 483.403 96.7688C484.407 100.167 486.609 103.202 487.827 106.558C488.597 108.653 488.532 111.068 488.853 113.334C488.404 113.484 487.934 113.633 487.485 113.783C486.694 112.8 485.668 111.923 485.177 110.812C480.282 99.975 471.625 92.8359 461.772 86.9366C459.976 85.8679 457.369 86.2099 455.167 85.7396C450.935 84.8419 446.746 83.8373 442.129 82.79C445.484 77.5319 449.994 78.2586 453.778 79.4129C458.074 80.7167 462.05 83.1747 465.982 85.4618C469.766 87.6633 473.335 90.271 477.546 93.0497C471.796 82.6618 465.363 73.5563 456.129 66.802C451.042 63.0829 445.933 59.0644 440.226 56.6064C432.852 53.4216 424.815 53.2292 417.014 55.8797C412.14 57.5255 407.331 59.3209 402.522 61.1591C401.753 61.4584 401.24 62.3989 400.256 62.7195C398.461 67.486 396.601 69.1104 392.604 68.0631C393.63 64.4294 394.656 60.7958 395.682 57.1835C386.235 67.2081 376.809 77.2113 366.763 87.8985C365.095 81.2297 366.528 76.2494 368.387 71.2264C372.641 59.6415 379.78 50.6857 391.45 46.1116L391.407 46.0688Z"
          fill="currentColor"/>
    <path d="M706.486 4.30272C706.187 5.60655 706.038 6.41878 705.738 7.50887C705.247 9.32569 704.862 11.1639 704.456 13.0021C703.729 16.2937 701.656 18.4953 698.941 20.3335C696.996 21.6373 695.222 23.1976 693.341 24.6084C693.085 24.8007 692.486 24.929 692.294 24.7794C692.059 24.587 691.866 23.9244 691.995 23.7107C692.657 21.0389 693.384 19.393 693.811 17.1487C694.56 13.1517 696.569 10.0097 700.053 7.80814C701.592 6.8463 702.96 5.58517 704.413 4.49508C704.777 4.23858 705.204 4.00349 705.61 3.91799C705.867 3.87524 706.166 4.15309 706.465 4.30272H706.486Z"
          fill="currentColor"/>
    <path d="M400.94 4.30272C401.239 5.60655 401.389 6.41878 401.688 7.50887C402.18 9.32569 402.564 11.1639 402.97 13.0021C403.697 16.2937 405.771 18.4953 408.485 20.3335C410.43 21.6373 412.204 23.1976 414.085 24.6084C414.342 24.8007 414.94 24.929 415.133 24.7794C415.368 24.587 415.56 23.9244 415.432 23.7107C414.769 21.0389 414.042 19.393 413.615 17.1487C412.867 13.1517 410.858 10.0097 407.374 7.80814C405.835 6.8463 404.467 5.58517 403.013 4.49508C402.65 4.23858 402.222 4.00349 401.816 3.91799C401.56 3.87524 401.261 4.15309 400.961 4.30272H400.94Z"
          fill="currentColor"/>
</svg>
