<svg viewBox="0 0 20 14" fill="none" xmlns="http://www.w3.org/2000/svg">
    <path fill-rule="evenodd" clip-rule="evenodd"
          d="M0.675367 7.04295C0.675367 7.22325 0.746992 7.39616 0.874483 7.52366C1.00198 7.65115 1.17489 7.72277 1.35519 7.72277L17.3895 7.72277L13.1107 12.0002C12.9831 12.1279 12.9114 12.301 12.9114 12.4815C12.9114 12.6621 12.9831 12.8352 13.1107 12.9629C13.2384 13.0905 13.4115 13.1622 13.592 13.1622C13.7726 13.1622 13.9457 13.0905 14.0733 12.9629L19.5119 7.52426C19.5753 7.46111 19.6255 7.38609 19.6598 7.3035C19.694 7.22091 19.7117 7.13237 19.7117 7.04295C19.7117 6.95353 19.694 6.86498 19.6598 6.78239C19.6255 6.6998 19.5753 6.62478 19.5119 6.56163L14.0733 1.12303C14.0101 1.05983 13.9351 1.00969 13.8525 0.975481C13.7699 0.941274 13.6814 0.923667 13.592 0.923667C13.4115 0.923667 13.2384 0.995382 13.1107 1.12303C12.9831 1.25069 12.9114 1.42382 12.9114 1.60435C12.9114 1.78488 12.9831 1.95801 13.1107 2.08567L17.3895 6.36312L1.35519 6.36312C1.17489 6.36312 1.00198 6.43475 0.874483 6.56224C0.746992 6.68973 0.675367 6.86265 0.675367 7.04295Z"
          fill="currentColor"/>
</svg>
