<svg width="25" height="24" viewBox="0 0 25 24" fill="none" xmlns="http://www.w3.org/2000/svg">
    <path d="M2.93945 12C2.93945 7.522 2.93945 5.282 4.33045 3.891C5.72145 2.5 7.96045 2.5 12.4395 2.5C16.9175 2.5 19.1575 2.5 20.5485 3.891C21.9395 5.282 21.9395 7.521 21.9395 12C21.9395 16.478 21.9395 18.718 20.5485 20.109C19.1575 21.5 16.9185 21.5 12.4395 21.5C7.96145 21.5 5.72145 21.5 4.33045 20.109C2.93945 18.718 2.93945 16.479 2.93945 12Z"
          stroke="currentColor" stroke-width="1.5" stroke-linecap="round" stroke-linejoin="round"/>
    <path d="M17.9475 6.5H17.9375M16.9395 12C16.9395 13.1935 16.4653 14.3381 15.6214 15.182C14.7775 16.0259 13.6329 16.5 12.4395 16.5C11.246 16.5 10.1014 16.0259 9.25747 15.182C8.41356 14.3381 7.93945 13.1935 7.93945 12C7.93945 10.8065 8.41356 9.66193 9.25747 8.81802C10.1014 7.97411 11.246 7.5 12.4395 7.5C13.6329 7.5 14.7775 7.97411 15.6214 8.81802C16.4653 9.66193 16.9395 10.8065 16.9395 12Z"
          stroke="currentColor" stroke-width="1.5" stroke-linecap="round" stroke-linejoin="round"/>
</svg>
