<svg width="16" height="9" viewBox="0 0 16 9" fill="none" xmlns="http://www.w3.org/2000/svg">
<path d="M3.55556 1.77778V0H16V1.77778H3.55556ZM3.55556 5.33333V3.55555H16V5.33333H3.55556ZM3.55556 8.88889V7.11111H16V8.88889H3.55556ZM0.888892 1.77778C0.63704 1.77778 0.426077 1.69244 0.256003 1.52178C0.0859291 1.35111 0.000595658 1.14015 3.06513e-06 0.888889C-0.000589527 0.63763 0.0847439 0.426667 0.256003 0.256C0.427262 0.0853334 0.638225 0 0.888892 0C1.13956 0 1.35082 0.0853334 1.52267 0.256C1.69452 0.426667 1.77956 0.63763 1.77778 0.888889C1.776 1.14015 1.69067 1.35141 1.52178 1.52267C1.35289 1.69393 1.14193 1.77896 0.888892 1.77778ZM0.888892 5.33333C0.63704 5.33333 0.426077 5.248 0.256003 5.07733C0.0859291 4.90667 0.000595658 4.6957 3.06513e-06 4.44444C-0.000589527 4.19318 0.0847439 3.98222 0.256003 3.81155C0.427262 3.64089 0.638225 3.55555 0.888892 3.55555C1.13956 3.55555 1.35082 3.64089 1.52267 3.81155C1.69452 3.98222 1.77956 4.19318 1.77778 4.44444C1.776 4.6957 1.69067 4.90696 1.52178 5.07822C1.35289 5.24948 1.14193 5.33452 0.888892 5.33333ZM0.888892 8.88889C0.63704 8.88889 0.426077 8.80355 0.256003 8.63289C0.0859291 8.46222 0.000595658 8.25126 3.06513e-06 8C-0.000589527 7.74874 0.0847439 7.53778 0.256003 7.36711C0.427262 7.19644 0.638225 7.11111 0.888892 7.11111C1.13956 7.11111 1.35082 7.19644 1.52267 7.36711C1.69452 7.53778 1.77956 7.74874 1.77778 8C1.776 8.25126 1.69067 8.46252 1.52178 8.63378C1.35289 8.80503 1.14193 8.89007 0.888892 8.88889Z" fill="currentColor"/>
</svg>
