<svg viewBox="0 0 343 130" fill="none" xmlns="http://www.w3.org/2000/svg">
    <path d="M55.0437 101.179L27.6631 62.6387H0.506836V127.785H18.8287V86.1274C18.8287 84.2335 18.7957 82.0767 18.7364 79.6568C18.7232 79.1242 18.7034 78.6112 18.6836 78.0918L46.625 116.863H62.1824L90.6055 77.3224C90.5791 78.072 90.5593 78.8348 90.5395 79.6108C90.4801 82.0569 90.4471 84.227 90.4471 86.1274V127.785H108.769V62.6387H82.3517L55.0503 101.179H55.0437Z"
          fill="black"/>
    <path d="M197.324 64.9799C189.835 62.0734 181.245 60.6201 171.546 60.6201C161.848 60.6201 153.257 62.0734 145.769 64.9799C138.28 67.8863 132.468 71.9502 128.324 77.1845C124.181 82.4123 122.109 88.4225 122.109 95.2153C122.109 102.008 124.181 108.012 128.324 113.246C132.468 118.474 138.28 122.544 145.769 125.451C153.257 128.357 161.848 129.81 171.546 129.81C181.245 129.81 189.835 128.357 197.324 125.451C204.812 122.544 210.625 118.48 214.768 113.246C218.911 108.018 220.983 102.008 220.983 95.2153C220.983 88.4225 218.911 82.4188 214.768 77.1845C210.625 71.9568 204.812 67.8863 197.324 64.9799ZM197.878 105.947C195.364 109.064 191.814 111.484 187.242 113.193C182.67 114.91 177.438 115.765 171.546 115.765C165.654 115.765 160.422 114.91 155.85 113.193C151.278 111.484 147.715 109.064 145.168 105.947C142.622 102.83 141.348 99.2462 141.348 95.2153C141.348 91.1843 142.622 87.6005 145.168 84.477C147.715 81.3601 151.271 78.9402 155.85 77.2305C160.422 75.5208 165.654 74.6594 171.546 74.6594C177.438 74.6594 182.67 75.5143 187.242 77.2305C191.814 78.9468 195.357 81.3601 197.878 84.477C200.391 87.594 201.652 91.1778 201.652 95.2153C201.652 99.2528 200.391 102.83 197.878 105.947Z"
          fill="black"/>
    <path d="M316.076 62.645L288.775 101.186L261.394 62.645H234.238V127.791H252.56V86.1337C252.56 84.2399 252.527 82.083 252.467 79.6631C252.454 79.1305 252.434 78.6176 252.415 78.0981L280.356 116.869H295.913L324.336 77.3287C324.31 78.0784 324.29 78.8412 324.27 79.6171C324.211 82.0633 324.178 84.2333 324.178 86.1337V127.791H342.5V62.645H316.083H316.076Z"
          fill="black"/>
    <path d="M0.506599 38.9395H2.91477L6.58971 43.8516H6.0091L9.66425 38.9395H12.0196V46.1662H10.3768V41.1621C10.3834 40.9188 10.39 40.6952 10.39 40.4979C10.39 40.3006 10.3966 40.0771 10.4032 39.8272L11.0168 39.4524L6.94598 44.9037H5.54727L1.44348 39.4524L2.11644 39.8272C2.12304 40.0836 2.12964 40.3138 2.12964 40.5111C2.12964 40.7083 2.13624 40.9253 2.14284 41.1621V46.1662H0.5V38.9395H0.506599Z"
          fill="black"/>
    <path d="M16.1962 45.8834C15.3781 45.5612 14.7447 45.1141 14.2894 44.5354C13.8342 43.9567 13.6099 43.2992 13.6099 42.5495C13.6099 41.7999 13.8342 41.1423 14.2894 40.5636C14.7447 39.985 15.3781 39.5378 16.1962 39.2156C17.0143 38.8934 17.9446 38.729 18.9936 38.729C20.0427 38.729 20.9861 38.8934 21.8042 39.2156C22.6224 39.5378 23.2557 39.985 23.711 40.5636C24.1662 41.1423 24.3906 41.7999 24.3906 42.5495C24.3906 43.2992 24.1662 43.9567 23.711 44.5354C23.2557 45.1141 22.6224 45.5612 21.8042 45.8834C20.9861 46.2057 20.0492 46.3701 18.9936 46.3701C17.938 46.3701 17.0143 46.2057 16.1962 45.8834ZM20.9004 44.7721C21.4546 44.5551 21.89 44.2592 22.1935 43.8713C22.5036 43.4833 22.6554 43.0427 22.6554 42.5495C22.6554 42.0563 22.5036 41.6092 22.1935 41.2278C21.8834 40.8464 21.4546 40.5505 20.9004 40.3335C20.3395 40.1165 19.7062 40.0047 18.9936 40.0047C18.2811 40.0047 17.6543 40.1099 17.1001 40.3269C16.5459 40.5373 16.1104 40.8398 15.8003 41.2278C15.4902 41.6158 15.3385 42.0563 15.3385 42.5495C15.3385 43.0427 15.4902 43.4964 15.8003 43.8778C16.1104 44.2592 16.5393 44.5617 17.1001 44.7721C17.6543 44.9826 18.2877 45.0944 18.9936 45.0944C19.6996 45.0944 20.3461 44.9891 20.9004 44.7721Z"
          fill="black"/>
    <path d="M28.0787 40.2483H24.7798V38.9331H33.0467V40.2483H29.7611V46.1599H28.0787V40.2483Z" fill="black"/>
    <path d="M34.4917 38.9395H36.1477V41.7802H41.2544V38.9395H42.9104V46.1662H41.2544V43.0625H36.1477V46.1662H34.4917V38.9395Z"
          fill="black"/>
    <path d="M45.0811 38.9397H51.8503V40.1891H46.7371V41.8462H51.3423V43.0758H46.7371V44.9105H52.0021V46.1599H45.0811V38.9331V38.9397Z"
          fill="black"/>
    <path d="M53.6775 38.9397H58.4543C59.0612 38.9397 59.5891 39.0252 60.0443 39.2027C60.4996 39.3803 60.8492 39.6301 61.0999 39.9589C61.3507 40.2877 61.4694 40.6691 61.4694 41.1031C61.4694 41.5371 61.3441 41.9317 61.0999 42.2604C60.8492 42.5892 60.4995 42.8457 60.0509 43.0232C59.6023 43.2008 59.0678 43.2928 58.4608 43.2928L57.6559 43.3323H55.3269V46.1599H53.6709V38.9331L53.6775 38.9397ZM59.1008 41.9711C59.3054 41.8922 59.4637 41.7804 59.5759 41.6423C59.6814 41.4977 59.7408 41.3333 59.7408 41.136C59.7408 40.9387 59.6814 40.7809 59.5693 40.6362C59.4571 40.4916 59.2988 40.3864 59.0942 40.3074C58.8897 40.2285 58.6522 40.1891 58.3883 40.1891H55.3269V42.0895H58.3883C58.6522 42.0895 58.8897 42.05 59.1008 41.9711ZM56.0857 42.7602L58.0782 42.7076L61.8785 46.1599H59.6814L56.0857 42.7602Z"
          fill="black"/>
    <path d="M164.493 45.8834C163.675 45.5612 163.042 45.1141 162.586 44.5354C162.131 43.9567 161.907 43.2992 161.907 42.5495C161.907 41.7999 162.131 41.1423 162.586 40.5636C163.042 39.985 163.675 39.5378 164.493 39.2156C165.311 38.8934 166.241 38.729 167.29 38.729C168.34 38.729 169.283 38.8934 170.101 39.2156C170.919 39.5378 171.553 39.985 172.008 40.5636C172.463 41.1423 172.687 41.7999 172.687 42.5495C172.687 43.2992 172.463 43.9567 172.008 44.5354C171.553 45.1141 170.919 45.5612 170.101 45.8834C169.283 46.2057 168.346 46.3701 167.29 46.3701C166.235 46.3701 165.311 46.2057 164.493 45.8834ZM169.197 44.7721C169.751 44.5551 170.187 44.2592 170.497 43.8713C170.807 43.4833 170.959 43.0427 170.959 42.5495C170.959 42.0563 170.807 41.6092 170.497 41.2278C170.187 40.8464 169.758 40.5505 169.197 40.3335C168.636 40.1165 168.003 40.0047 167.29 40.0047C166.578 40.0047 165.951 40.1099 165.397 40.3269C164.843 40.5373 164.407 40.8398 164.097 41.2278C163.787 41.6158 163.635 42.0563 163.635 42.5495C163.635 43.0427 163.787 43.4964 164.097 43.8778C164.407 44.2592 164.836 44.5617 165.397 44.7721C165.951 44.9826 166.585 45.0944 167.29 45.0944C167.996 45.0944 168.643 44.9891 169.197 44.7721Z"
          fill="black"/>
    <path d="M174.297 38.9395H181.086V40.202H175.953V42.0761H180.592V43.3255H175.953V46.1662H174.297V38.9395Z"
          fill="black"/>
    <path d="M296.87 38.9395H299.278L302.953 43.8516H302.373L306.028 38.9395H308.383V46.1662H306.74V41.1621C306.747 40.9188 306.754 40.6952 306.754 40.4979C306.754 40.3006 306.76 40.0771 306.767 39.8272L307.38 39.4524L303.303 44.9037H301.904L297.8 39.4524L298.473 39.8272C298.48 40.0836 298.487 40.3138 298.487 40.5111C298.487 40.7083 298.493 40.9253 298.5 41.1621V46.1662H296.857V38.9395H296.87Z"
          fill="black"/>
    <path d="M312.454 45.9624C311.794 45.6927 311.299 45.3048 310.95 44.7984C310.607 44.2921 310.435 43.6806 310.435 42.9638V38.9328H312.091V42.898C312.091 43.3518 312.197 43.7397 312.414 44.062C312.632 44.3842 312.936 44.634 313.345 44.805C313.747 44.976 314.235 45.0615 314.809 45.0615C315.66 45.0615 316.327 44.8708 316.808 44.4894C317.29 44.108 317.528 43.5753 317.528 42.8915V38.9263H319.19V42.9572C319.19 43.6674 319.019 44.279 318.669 44.7919C318.319 45.2982 317.818 45.6862 317.158 45.9558C316.498 46.2254 315.713 46.3569 314.809 46.3569C313.905 46.3569 313.114 46.2254 312.454 45.9558V45.9624Z"
          fill="black"/>
    <path d="M322.608 46.0284C321.836 45.8048 321.236 45.5089 320.793 45.1406V43.5098C321.084 43.8386 321.447 44.1148 321.882 44.3515C322.318 44.5883 322.793 44.7658 323.327 44.8973C323.861 45.0288 324.416 45.088 324.99 45.088C325.445 45.088 325.841 45.0486 326.171 44.9762C326.5 44.9039 326.758 44.7921 326.936 44.6474C327.114 44.5028 327.206 44.3318 327.206 44.1279C327.206 43.9636 327.147 43.832 327.028 43.7202C326.91 43.615 326.685 43.5164 326.362 43.4375C326.032 43.3586 325.557 43.2862 324.924 43.2271L323.914 43.1284C322.918 43.0166 322.166 42.7931 321.645 42.4446C321.123 42.096 320.866 41.6291 320.866 41.0373C320.866 40.5573 321.024 40.143 321.348 39.7945C321.664 39.446 322.12 39.183 322.713 38.9988C323.301 38.8147 323.993 38.7227 324.792 38.7227C325.293 38.7227 325.781 38.7621 326.25 38.8344C326.718 38.9068 327.14 39.0186 327.523 39.1632C327.899 39.3079 328.203 39.4657 328.44 39.6433V41.182C328.229 40.9518 327.939 40.748 327.576 40.5704C327.213 40.3929 326.797 40.2548 326.336 40.1562C325.874 40.0575 325.379 40.0115 324.858 40.0115C324.409 40.0115 324.013 40.0444 323.663 40.1101C323.314 40.1759 323.05 40.2811 322.865 40.4126C322.68 40.5441 322.581 40.7085 322.581 40.8992C322.581 41.0505 322.634 41.1754 322.746 41.2675C322.852 41.3661 323.076 41.4582 323.406 41.5371C323.736 41.616 324.224 41.6949 324.864 41.7607L325.854 41.8527C326.863 41.9645 327.629 42.1947 328.156 42.5629C328.684 42.9246 328.948 43.4112 328.948 44.0227C328.948 44.5093 328.79 44.9302 328.48 45.2853C328.17 45.6404 327.721 45.9034 327.134 46.0875C326.547 46.2717 325.874 46.3637 325.095 46.3637C324.224 46.3637 323.406 46.2519 322.634 46.0284H322.608Z"
          fill="black"/>
    <path d="M330.512 38.9395H332.168V46.1662H330.512V38.9395Z" fill="black"/>
    <path d="M336.338 45.8835C335.533 45.5679 334.906 45.1207 334.451 44.5421C334.002 43.9634 333.778 43.2992 333.778 42.5562C333.778 41.8131 334.002 41.1358 334.451 40.5637C334.899 39.985 335.526 39.5379 336.338 39.2288C337.143 38.9132 338.073 38.7554 339.129 38.7554C339.802 38.7554 340.428 38.8277 341.009 38.9724C341.59 39.117 342.084 39.3275 342.493 39.6102V41.149C342.098 40.8004 341.623 40.5374 341.062 40.3533C340.501 40.1692 339.887 40.0705 339.214 40.0705C338.489 40.0705 337.842 40.1757 337.275 40.3796C336.707 40.5834 336.272 40.8793 335.962 41.2607C335.652 41.6421 335.5 42.0761 335.5 42.5627C335.5 43.0493 335.652 43.4965 335.962 43.8713C336.272 44.2461 336.707 44.5421 337.275 44.7459C337.842 44.9498 338.489 45.055 339.214 45.055C339.894 45.055 340.514 44.9695 341.068 44.7919C341.629 44.6144 342.098 44.3514 342.487 44.0094V45.5087C342.078 45.7915 341.59 46.0085 341.009 46.1531C340.428 46.2978 339.802 46.3701 339.115 46.3701C338.06 46.3701 337.129 46.2123 336.325 45.8967L336.338 45.8835Z"
          fill="black"/>
    <path d="M136.315 0.0108969C128.885 -0.285013 122.618 5.48195 122.327 12.8928C122.03 20.3038 127.817 26.5442 135.252 26.8401C142.681 27.136 148.949 21.369 149.239 13.9581C149.536 6.5538 143.75 0.306806 136.315 0.0174716V0.0108969ZM142.002 19.6725C141.837 19.9684 141.507 20.1131 141.19 20.067C141.091 20.0539 140.999 20.021 140.907 19.9684C139.125 18.9557 137.185 18.2981 135.14 18.0154C133.095 17.726 131.05 17.8247 129.057 18.3113C128.628 18.4165 128.193 18.1535 128.087 17.7195C127.982 17.292 128.246 16.858 128.681 16.7528C130.871 16.2202 133.121 16.115 135.364 16.4306C137.614 16.7463 139.745 17.4696 141.705 18.5809C142.088 18.7979 142.226 19.2911 142.008 19.6725H142.002ZM143.77 16.1479C143.493 16.6542 142.859 16.8449 142.351 16.5687C140.267 15.4442 138.01 14.7078 135.648 14.379C133.286 14.0502 130.911 14.1357 128.602 14.642C128.476 14.6683 128.351 14.6749 128.232 14.6552C127.81 14.596 127.454 14.2869 127.355 13.8463C127.229 13.2874 127.586 12.7285 128.153 12.6035C130.713 12.0446 133.332 11.9459 135.945 12.3076C138.558 12.6758 141.045 13.4912 143.348 14.7275C143.856 15.0037 144.047 15.635 143.77 16.1413V16.1479ZM145.736 12.1761C145.479 12.6693 144.938 12.9257 144.417 12.8534C144.278 12.8337 144.133 12.7876 144.001 12.7219C141.573 11.4659 138.96 10.6308 136.235 10.2494C133.51 9.86799 130.766 9.9469 128.087 10.4927C127.388 10.6308 126.715 10.1836 126.57 9.49317C126.431 8.79614 126.88 8.12541 127.573 7.98074C130.542 7.38235 133.57 7.29028 136.592 7.71113C139.607 8.13198 142.497 9.05259 145.182 10.4467C145.815 10.7754 146.059 11.5448 145.729 12.1761H145.736ZM161.01 12.1366L160.08 11.8605C158.206 11.3081 157.678 11.0977 157.678 10.348C157.678 9.63784 158.47 8.8619 160.218 8.8619C161.967 8.8619 163.405 9.7036 164.157 10.3283C164.289 10.4401 164.427 10.3875 164.427 10.2165V7.75059C164.427 7.6388 164.394 7.57962 164.315 7.52044C163.385 6.82998 161.762 6.32364 160.139 6.32364C156.827 6.32364 154.841 8.20432 154.841 10.3414C154.841 12.7548 156.378 13.5965 158.912 14.3066L160 14.6157C161.894 15.1483 162.244 15.6218 162.244 16.3583C162.244 17.588 161.313 17.9628 159.921 17.9628C158.173 17.9628 156.042 16.9435 155.039 15.7007C154.947 15.5889 154.841 15.6415 154.841 15.773V18.4823C154.841 18.5941 154.854 18.6401 154.933 18.7321C155.765 19.6396 157.764 20.4418 160.086 20.4418C162.943 20.4418 165.087 18.7782 165.087 16.207C165.087 14.208 163.906 13.0046 161.016 12.1432L161.01 12.1366ZM172.351 10.1705C170.464 10.1705 169.376 11.3147 168.736 12.4654V10.4861C168.736 10.3941 168.683 10.348 168.597 10.348H166.103C166.011 10.348 165.965 10.4006 165.965 10.4861V23.1774C165.965 23.2694 166.018 23.3155 166.103 23.3155H168.597C168.69 23.3155 168.736 23.2629 168.736 23.1774V18.1009C169.369 19.2451 170.445 20.3761 172.371 20.3761C174.911 20.3761 176.739 18.1929 176.739 15.2536C176.739 12.3142 174.891 10.1705 172.351 10.1705ZM171.619 17.9825C170.286 17.9825 169.138 16.6739 168.683 15.2338C169.138 13.7082 170.194 12.5443 171.619 12.5443C173.044 12.5443 173.922 13.5702 173.922 15.2536C173.922 16.937 172.978 17.9825 171.619 17.9825ZM217.216 10.348H214.676C214.583 10.348 214.544 10.3677 214.504 10.4598L211.944 16.595L209.371 10.4598C209.332 10.3677 209.292 10.348 209.2 10.348H205.089V9.69702C205.089 8.63174 205.815 8.13198 206.745 8.13198C207.3 8.13198 207.907 8.42132 208.335 8.67777C208.434 8.73696 208.507 8.66462 208.467 8.57914L207.577 6.45516C207.544 6.38283 207.504 6.34337 207.438 6.30392C207.003 6.07377 206.29 5.87649 205.591 5.87649C203.486 5.87649 202.279 7.48098 202.279 9.51947V10.348H200.59C200.497 10.348 200.451 10.4006 200.451 10.4861V12.4654C200.451 12.5575 200.504 12.6035 200.59 12.6035H202.279V20.0605C202.279 20.1525 202.331 20.1985 202.417 20.1985H204.957C205.05 20.1985 205.096 20.1459 205.096 20.0605V12.6035H207.267L210.42 19.4357L208.725 23.1576C208.672 23.2694 208.738 23.3155 208.837 23.3155H211.548C211.641 23.3155 211.68 23.2957 211.72 23.2037L217.328 10.5058C217.368 10.4138 217.315 10.348 217.216 10.348ZM182.934 10.1113C179.721 10.1113 177.504 12.3734 177.504 15.2733C177.504 18.1732 179.714 20.4353 182.934 20.4353C186.154 20.4353 188.371 18.1535 188.371 15.2733C188.371 12.3931 186.141 10.1113 182.934 10.1113ZM182.941 18.0088C181.403 18.0088 180.308 16.8449 180.308 15.2667C180.308 13.6885 181.397 12.5246 182.941 12.5246C184.485 12.5246 185.56 13.6885 185.56 15.2667C185.56 16.8449 184.471 18.0088 182.941 18.0088ZM220.581 10.9267C220.449 10.7031 220.271 10.5256 220.04 10.4006C219.809 10.2757 219.552 10.2099 219.261 10.2099C218.971 10.2099 218.714 10.2757 218.483 10.4006C218.252 10.5256 218.074 10.7031 217.942 10.9267C217.81 11.1503 217.744 11.4067 217.744 11.6895C217.744 11.9722 217.81 12.2221 217.942 12.4457C218.074 12.6693 218.252 12.8468 218.483 12.9718C218.714 13.0967 218.971 13.1625 219.261 13.1625C219.552 13.1625 219.809 13.0967 220.04 12.9718C220.271 12.8468 220.449 12.6693 220.581 12.4457C220.713 12.2221 220.779 11.9722 220.779 11.6895C220.779 11.4067 220.713 11.1503 220.581 10.9267ZM220.343 12.3208C220.238 12.5049 220.093 12.6495 219.901 12.7548C219.71 12.86 219.499 12.9126 219.261 12.9126C219.024 12.9126 218.806 12.86 218.615 12.7548C218.423 12.6495 218.278 12.5049 218.173 12.3208C218.067 12.1366 218.014 11.9262 218.014 11.6895C218.014 11.4528 218.067 11.2423 218.173 11.0582C218.278 10.8741 218.423 10.7294 218.615 10.6242C218.806 10.519 219.017 10.4664 219.261 10.4664C219.505 10.4664 219.716 10.519 219.901 10.6242C220.093 10.7294 220.238 10.8741 220.343 11.0582C220.449 11.2423 220.502 11.4528 220.502 11.6895C220.502 11.9262 220.449 12.1301 220.343 12.3142V12.3208ZM198.082 5.85676C197.132 5.85676 196.433 6.52749 196.433 7.4218C196.433 8.31611 197.126 8.98683 198.082 8.98683C199.039 8.98683 199.752 8.31611 199.752 7.4218C199.752 6.52749 199.059 5.85676 198.082 5.85676ZM219.776 11.6632C219.875 11.5908 219.928 11.4922 219.928 11.3673C219.928 11.2423 219.881 11.1437 219.782 11.0714C219.683 10.999 219.538 10.9596 219.354 10.9596H218.694V12.3339H219.01V11.7881H219.182L219.604 12.3339H219.994L219.532 11.7552C219.631 11.7355 219.71 11.7092 219.769 11.6632H219.776ZM219.301 11.5382H219.01V11.2029H219.314C219.406 11.2029 219.472 11.216 219.519 11.2423C219.565 11.2686 219.591 11.3147 219.591 11.3738C219.591 11.4264 219.565 11.4725 219.519 11.4988C219.466 11.5251 219.393 11.5382 219.301 11.5382ZM199.362 10.348H196.822C196.73 10.348 196.684 10.4006 196.684 10.4861V20.0605C196.684 20.1525 196.737 20.1985 196.822 20.1985H199.362C199.455 20.1985 199.501 20.1459 199.501 20.0605V10.4861C199.501 10.3941 199.448 10.348 199.362 10.348ZM195.622 17.7326C195.331 17.8904 194.955 18.022 194.441 18.022C193.629 18.022 193.108 17.5485 193.108 16.4964V12.5969H195.589C195.681 12.5969 195.727 12.5443 195.727 12.4588V10.4795C195.727 10.3875 195.674 10.3414 195.589 10.3414H193.108V7.75716C193.108 7.64538 193.035 7.58619 192.936 7.6651L188.503 11.1437C188.443 11.1963 188.423 11.2423 188.423 11.3212V12.4457C188.423 12.5378 188.476 12.5838 188.562 12.5838H190.291V16.8975C190.291 19.2319 191.643 20.3169 193.563 20.3169C194.394 20.3169 195.199 20.0999 195.674 19.8237C195.747 19.7843 195.753 19.7448 195.753 19.6725V17.7918C195.753 17.6932 195.701 17.6603 195.615 17.7129L195.622 17.7326Z"
          fill="black"/>
</svg>
