<svg width="826" height="314" viewBox="0 0 826 314" fill="none" xmlns="http://www.w3.org/2000/svg">
    <path d="M131.734 244.368L65.6045 151.285H0.0166016V308.626H44.2677V208.015C44.2677 203.441 44.1881 198.231 44.0447 192.387C44.0128 191.1 43.965 189.862 43.9172 188.607L111.401 282.246H148.976L217.623 186.749C217.559 188.559 217.512 190.402 217.464 192.276C217.32 198.184 217.241 203.425 217.241 208.015V308.626H261.492V151.285H197.689L131.75 244.368H131.734Z"
          fill="currentColor"/>
    <path d="M475.369 156.939C457.283 149.919 436.536 146.409 413.112 146.409C389.688 146.409 368.94 149.919 350.854 156.939C332.768 163.959 318.73 173.774 308.723 186.416C298.715 199.042 293.712 213.558 293.712 229.964C293.712 246.37 298.715 260.87 308.723 273.512C318.73 286.138 332.768 295.969 350.854 302.988C368.94 310.008 389.688 313.518 413.112 313.518C436.536 313.518 457.283 310.008 475.369 302.988C493.456 295.969 507.494 286.154 517.501 273.512C527.508 260.886 532.512 246.37 532.512 229.964C532.512 213.558 527.508 199.058 517.501 186.416C507.494 173.79 493.456 163.959 475.369 156.939ZM476.708 255.883C470.637 263.411 462.064 269.255 451.021 273.385C439.978 277.53 427.342 279.594 413.112 279.594C398.882 279.594 386.246 277.53 375.203 273.385C364.16 269.255 355.555 263.411 349.404 255.883C343.253 248.355 340.178 239.699 340.178 229.964C340.178 220.228 343.253 211.572 349.404 204.029C355.555 196.501 364.144 190.656 375.203 186.527C386.246 182.397 398.882 180.317 413.112 180.317C427.342 180.317 439.978 182.382 451.021 186.527C462.064 190.672 470.621 196.501 476.708 204.029C482.779 211.557 485.823 220.212 485.823 229.964C485.823 239.715 482.779 248.355 476.708 255.883Z"
          fill="currentColor"/>
    <path d="M762.182 151.301L696.243 244.384L630.113 151.301H564.525V308.642H608.777V208.031C608.777 203.457 608.697 198.248 608.553 192.403C608.522 191.117 608.474 189.878 608.426 188.623L675.91 282.263H713.485L782.132 186.765C782.068 188.575 782.02 190.418 781.973 192.292C781.829 198.2 781.75 203.441 781.75 208.031V308.642H826.001V151.301H762.198H762.182Z"
          fill="currentColor"/>
    <path d="M0.0159383 94.0469H5.83216L14.7079 105.911H13.3056L22.1335 94.0469H27.8223V111.501H23.8545V99.4149C23.8704 98.8273 23.8864 98.2873 23.8864 97.8109C23.8864 97.3344 23.9023 96.7944 23.9182 96.1909L25.4002 95.2857L15.5684 108.452H12.1902L2.27869 95.2857L3.90404 96.1909C3.91998 96.8103 3.93591 97.3662 3.93591 97.8426C3.93591 98.3191 3.95185 98.8432 3.96779 99.4149V111.501H0V94.0469H0.0159383Z"
          fill="currentColor"/>
    <path d="M37.9086 110.818C35.9327 110.04 34.4029 108.96 33.3034 107.562C32.2039 106.165 31.6621 104.576 31.6621 102.766C31.6621 100.955 32.2039 99.3672 33.3034 97.9696C34.4029 96.572 35.9327 95.492 37.9086 94.7138C39.8845 93.9356 42.1313 93.5386 44.665 93.5386C47.1986 93.5386 49.4773 93.9356 51.4532 94.7138C53.4291 95.492 54.9589 96.572 56.0584 97.9696C57.1579 99.3672 57.6997 100.955 57.6997 102.766C57.6997 104.576 57.1579 106.165 56.0584 107.562C54.9589 108.96 53.4291 110.04 51.4532 110.818C49.4773 111.596 47.2145 111.993 44.665 111.993C42.1154 111.993 39.8845 111.596 37.9086 110.818ZM49.2701 108.134C50.6087 107.61 51.6604 106.895 52.3934 105.958C53.1423 105.021 53.5088 103.957 53.5088 102.766C53.5088 101.575 53.1423 100.495 52.3934 99.5737C51.6444 98.6525 50.6087 97.9378 49.2701 97.4137C47.9157 96.8896 46.3859 96.6196 44.665 96.6196C42.944 96.6196 41.4302 96.8738 40.0917 97.3979C38.7531 97.9061 37.7014 98.6366 36.9525 99.5737C36.2036 100.511 35.837 101.575 35.837 102.766C35.837 103.957 36.2036 105.053 36.9525 105.974C37.7014 106.895 38.7372 107.626 40.0917 108.134C41.4302 108.642 42.9599 108.912 44.665 108.912C46.37 108.912 47.9316 108.658 49.2701 108.134Z"
          fill="currentColor"/>
    <path d="M66.6071 97.2076H58.6396V94.0312H78.606V97.2076H70.6705V111.485H66.6071V97.2076Z" fill="currentColor"/>
    <path d="M82.0967 94.0469H86.0963V100.908H98.4299V94.0469H102.43V111.501H98.4299V104.005H86.0963V111.501H82.0967V94.0469Z"
          fill="currentColor"/>
    <path d="M107.672 94.0471H124.021V97.0647H111.672V101.067H122.794V104.037H111.672V108.468H124.388V111.485H107.672V94.0312V94.0471Z"
          fill="currentColor"/>
    <path d="M128.435 94.0471H139.972C141.438 94.0471 142.713 94.2536 143.812 94.6824C144.912 95.1112 145.756 95.7147 146.362 96.5088C146.967 97.3029 147.254 98.2241 147.254 99.2723C147.254 100.32 146.951 101.273 146.362 102.067C145.756 102.862 144.912 103.481 143.828 103.91C142.744 104.339 141.454 104.561 139.988 104.561L138.044 104.656H132.419V111.485H128.419V94.0312L128.435 94.0471ZM141.533 101.369C142.027 101.178 142.41 100.908 142.681 100.575C142.936 100.225 143.079 99.8281 143.079 99.3517C143.079 98.8752 142.936 98.4941 142.665 98.1447C142.394 97.7953 142.011 97.5411 141.517 97.3506C141.023 97.16 140.45 97.0647 139.812 97.0647H132.419V101.655H139.812C140.45 101.655 141.023 101.559 141.533 101.369ZM134.251 103.274L139.063 103.147L148.242 111.485H142.936L134.251 103.274Z"
          fill="currentColor"/>
    <path d="M396.077 110.818C394.101 110.04 392.571 108.96 391.471 107.562C390.372 106.165 389.83 104.576 389.83 102.766C389.83 100.955 390.372 99.3672 391.471 97.9696C392.571 96.572 394.101 95.492 396.077 94.7138C398.052 93.9356 400.299 93.5386 402.833 93.5386C405.367 93.5386 407.645 93.9356 409.621 94.7138C411.597 95.492 413.127 96.572 414.226 97.9696C415.326 99.3672 415.868 100.955 415.868 102.766C415.868 104.576 415.326 106.165 414.226 107.562C413.127 108.96 411.597 110.04 409.621 110.818C407.645 111.596 405.383 111.993 402.833 111.993C400.283 111.993 398.052 111.596 396.077 110.818ZM407.438 108.134C408.777 107.61 409.828 106.895 410.577 105.958C411.326 105.021 411.693 103.957 411.693 102.766C411.693 101.575 411.326 100.495 410.577 99.5737C409.828 98.6525 408.793 97.9378 407.438 97.4137C406.084 96.8896 404.554 96.6196 402.833 96.6196C401.112 96.6196 399.598 96.8738 398.26 97.3979C396.921 97.9061 395.869 98.6366 395.12 99.5737C394.372 100.511 394.005 101.575 394.005 102.766C394.005 103.957 394.372 105.053 395.12 105.974C395.869 106.895 396.905 107.626 398.26 108.134C399.598 108.642 401.128 108.912 402.833 108.912C404.538 108.912 406.1 108.658 407.438 108.134Z"
          fill="currentColor"/>
    <path d="M419.756 94.0469H436.153V97.0962H423.756V101.623H434.958V104.64H423.756V111.501H419.756V94.0469Z"
          fill="currentColor"/>
    <path d="M715.795 94.0469H721.611L730.487 105.911H729.084L737.912 94.0469H743.601V111.501H739.633V99.4149C739.649 98.8273 739.665 98.2873 739.665 97.8109C739.665 97.3344 739.681 96.7944 739.697 96.1909L741.179 95.2857L731.331 108.452H727.953L718.041 95.2857L719.667 96.1909C719.683 96.8103 719.699 97.3662 719.699 97.8426C719.699 98.3191 719.715 98.8432 719.73 99.4149V111.501H715.763V94.0469H715.795Z"
          fill="currentColor"/>
    <path d="M753.433 111.009C751.839 110.358 750.644 109.421 749.8 108.198C748.971 106.975 748.557 105.498 748.557 103.767V94.031H752.556V103.608C752.556 104.704 752.811 105.641 753.337 106.419C753.863 107.197 754.596 107.801 755.584 108.214C756.556 108.626 757.735 108.833 759.122 108.833C761.177 108.833 762.786 108.372 763.95 107.451C765.113 106.53 765.687 105.244 765.687 103.592V94.0151H769.702V103.751C769.702 105.466 769.288 106.943 768.443 108.182C767.599 109.405 766.388 110.342 764.794 110.993C763.201 111.644 761.305 111.962 759.122 111.962C756.938 111.962 755.026 111.644 753.433 110.993V111.009Z"
          fill="currentColor"/>
    <path d="M777.957 111.168C776.092 110.628 774.642 109.913 773.575 109.024V105.085C774.276 105.879 775.152 106.546 776.204 107.118C777.256 107.69 778.403 108.118 779.694 108.436C780.984 108.754 782.323 108.897 783.709 108.897C784.809 108.897 785.765 108.801 786.562 108.627C787.358 108.452 787.98 108.182 788.41 107.833C788.84 107.483 789.063 107.07 789.063 106.578C789.063 106.181 788.92 105.863 788.633 105.593C788.346 105.339 787.804 105.101 787.024 104.91C786.227 104.72 785.08 104.545 783.55 104.402L781.112 104.164C778.706 103.894 776.889 103.354 775.63 102.512C774.371 101.67 773.75 100.543 773.75 99.1134C773.75 97.954 774.132 96.9534 774.913 96.1117C775.678 95.2699 776.778 94.6347 778.212 94.19C779.63 93.7453 781.303 93.5229 783.231 93.5229C784.442 93.5229 785.621 93.6182 786.753 93.7929C787.884 93.9676 788.904 94.2376 789.828 94.587C790.736 94.9364 791.469 95.3176 792.043 95.7464V99.4628C791.533 98.9069 790.832 98.4146 789.956 97.9857C789.079 97.5569 788.075 97.2234 786.96 96.9852C785.844 96.747 784.649 96.6358 783.391 96.6358C782.307 96.6358 781.351 96.7152 780.506 96.874C779.662 97.0328 779.024 97.2869 778.578 97.6046C778.132 97.9222 777.893 98.3193 777.893 98.7798C777.893 99.1451 778.02 99.4469 778.291 99.6692C778.546 99.9075 779.088 100.13 779.885 100.32C780.682 100.511 781.861 100.702 783.406 100.86L785.797 101.083C788.235 101.353 790.083 101.909 791.358 102.798C792.633 103.671 793.27 104.847 793.27 106.324C793.27 107.499 792.888 108.515 792.139 109.373C791.39 110.231 790.306 110.866 788.888 111.311C787.47 111.755 785.844 111.978 783.964 111.978C781.861 111.978 779.885 111.708 778.02 111.168H777.957Z"
          fill="currentColor"/>
    <path d="M797.047 94.0469H801.047V111.501H797.047V94.0469Z" fill="currentColor"/>
    <path d="M811.117 110.818C809.173 110.056 807.659 108.976 806.56 107.578C805.476 106.18 804.935 104.576 804.935 102.782C804.935 100.987 805.476 99.3513 806.56 97.9696C807.643 96.572 809.157 95.492 811.117 94.7455C813.061 93.9832 815.308 93.6021 817.858 93.6021C819.483 93.6021 820.997 93.7767 822.399 94.1261C823.801 94.4755 824.997 94.9838 825.985 95.6667V99.383C825.028 98.5413 823.881 97.906 822.527 97.4613C821.172 97.0166 819.69 96.7784 818.065 96.7784C816.312 96.7784 814.75 97.0325 813.38 97.5249C812.01 98.0172 810.958 98.7319 810.209 99.653C809.46 100.574 809.094 101.622 809.094 102.798C809.094 103.973 809.46 105.053 810.209 105.958C810.958 106.863 812.01 107.578 813.38 108.07C814.75 108.563 816.312 108.817 818.065 108.817C819.706 108.817 821.204 108.61 822.543 108.182C823.897 107.753 825.028 107.118 825.969 106.292V109.913C824.981 110.596 823.801 111.12 822.399 111.469C820.997 111.819 819.483 111.993 817.826 111.993C815.276 111.993 813.029 111.612 811.085 110.85L811.117 110.818Z"
          fill="currentColor"/>
    <path d="M328.019 0.0263183C310.077 -0.688365 294.938 13.24 294.237 31.1389C293.52 49.0377 307.495 64.1096 325.454 64.8243C343.396 65.539 358.535 51.6106 359.236 33.7117C359.953 15.8288 345.978 0.740999 328.019 0.0421975V0.0263183ZM341.755 47.5131C341.357 48.2277 340.56 48.5771 339.795 48.466C339.556 48.4342 339.333 48.3548 339.11 48.2277C334.808 45.7819 330.123 44.1938 325.183 43.5108C320.243 42.812 315.303 43.0503 310.491 44.2255C309.455 44.4796 308.403 43.8443 308.148 42.7961C307.894 41.7638 308.531 40.7156 309.583 40.4615C314.873 39.1751 320.307 38.921 325.725 39.6833C331.158 40.4456 336.305 42.1926 341.038 44.8767C341.962 45.4008 342.297 46.5919 341.771 47.5131H341.755ZM346.026 39.0004C345.356 40.2233 343.827 40.6839 342.6 40.0168C337.564 37.301 332.115 35.5223 326.41 34.7282C320.705 33.9341 314.969 34.1405 309.391 35.3634C309.089 35.427 308.786 35.4429 308.499 35.3952C307.479 35.2523 306.619 34.5058 306.38 33.4417C306.077 32.0918 306.937 30.7418 308.308 30.4401C314.491 29.0901 320.817 28.8519 327.127 29.7254C333.437 30.6148 339.445 32.5841 345.006 35.5699C346.233 36.2369 346.695 37.7616 346.026 38.9845V39.0004ZM350.774 29.4077C350.153 30.5989 348.846 31.2183 347.587 31.0436C347.253 30.9959 346.902 30.8848 346.583 30.7259C340.719 27.6925 334.409 25.6755 327.828 24.7544C321.247 23.8332 314.618 24.0238 308.148 25.342C306.459 25.6755 304.834 24.5955 304.483 22.9279C304.149 21.2445 305.232 19.6245 306.906 19.2751C314.076 17.8299 321.39 17.6075 328.689 18.624C335.971 19.6404 342.95 21.8639 349.436 25.2308C350.965 26.0249 351.555 27.8831 350.758 29.4077H350.774ZM387.663 29.3125L385.417 28.6454C380.891 27.3113 379.616 26.8031 379.616 24.9926C379.616 23.2773 381.529 21.4033 385.751 21.4033C389.974 21.4033 393.448 23.4362 395.264 24.9449C395.583 25.2149 395.918 25.0879 395.918 24.675V18.7193C395.918 18.4493 395.838 18.3063 395.647 18.1634C393.4 16.4958 389.48 15.2729 385.56 15.2729C377.561 15.2729 372.764 19.8151 372.764 24.9767C372.764 30.8054 376.477 32.8382 382.596 34.5535L385.225 35.2999C389.799 36.5863 390.643 37.7298 390.643 39.5086C390.643 42.4785 388.397 43.3838 385.034 43.3838C380.812 43.3838 375.665 40.9221 373.242 37.9204C373.019 37.6504 372.764 37.7775 372.764 38.0951V44.6384C372.764 44.9084 372.796 45.0196 372.987 45.242C374.995 47.4336 379.824 49.3712 385.433 49.3712C392.332 49.3712 397.511 45.3531 397.511 39.1433C397.511 34.3152 394.659 31.4089 387.679 29.3283L387.663 29.3125ZM415.056 24.5638C410.498 24.5638 407.869 27.3272 406.323 30.1065V25.3261C406.323 25.1038 406.196 24.9926 405.989 24.9926H399.965C399.742 24.9926 399.631 25.1196 399.631 25.3261V55.9781C399.631 56.2004 399.758 56.3116 399.965 56.3116H405.989C406.212 56.3116 406.323 56.1846 406.323 55.9781V43.7173C407.853 46.4807 410.45 49.2124 415.103 49.2124C421.238 49.2124 425.652 43.9396 425.652 36.8405C425.652 29.7413 421.19 24.5638 415.056 24.5638ZM413.287 43.4314C410.068 43.4314 407.295 40.2709 406.196 36.7928C407.295 33.1082 409.845 30.2971 413.287 30.2971C416.729 30.2971 418.848 32.7747 418.848 36.8405C418.848 40.9062 416.569 43.4314 413.287 43.4314ZM523.413 24.9926H517.278C517.055 24.9926 516.959 25.0402 516.863 25.2626L510.681 40.0804L504.466 25.2626C504.37 25.0402 504.275 24.9926 504.052 24.9926H494.124V23.4203C494.124 20.8474 495.877 19.6404 498.124 19.6404C499.463 19.6404 500.929 20.3392 501.964 20.9586C502.203 21.1015 502.379 20.9268 502.283 20.7204L500.132 15.5905C500.052 15.4158 499.957 15.3205 499.797 15.2253C498.745 14.6694 497.025 14.1929 495.335 14.1929C490.252 14.1929 487.336 18.0681 487.336 22.9915V24.9926H483.257C483.034 24.9926 482.922 25.1196 482.922 25.3261V30.1065C482.922 30.3289 483.05 30.4401 483.257 30.4401H487.336V48.4501C487.336 48.6724 487.464 48.7836 487.671 48.7836H493.806C494.029 48.7836 494.14 48.6566 494.14 48.4501V30.4401H499.383L507 46.9413L502.904 55.9304C502.777 56.2004 502.936 56.3116 503.175 56.3116H509.725C509.948 56.3116 510.043 56.264 510.139 56.0416L523.684 25.3738C523.779 25.1514 523.652 24.9926 523.413 24.9926ZM440.615 24.4208C432.855 24.4208 427.501 29.8842 427.501 36.8881C427.501 43.892 432.839 49.3554 440.615 49.3554C448.391 49.3554 453.745 43.8443 453.745 36.8881C453.745 29.9318 448.359 24.4208 440.615 24.4208ZM440.631 43.495C436.918 43.495 434.273 40.6839 434.273 36.8722C434.273 33.0606 436.902 30.2495 440.631 30.2495C444.36 30.2495 446.957 33.0606 446.957 36.8722C446.957 40.6839 444.328 43.495 440.631 43.495ZM531.539 26.3902C531.221 25.8502 530.791 25.4214 530.233 25.1196C529.675 24.8179 529.054 24.6591 528.352 24.6591C527.651 24.6591 527.03 24.8179 526.472 25.1196C525.914 25.4214 525.484 25.8502 525.166 26.3902C524.847 26.9302 524.687 27.5496 524.687 28.2325C524.687 28.9154 524.847 29.5189 525.166 30.0589C525.484 30.5989 525.914 31.0277 526.472 31.3295C527.03 31.6312 527.651 31.79 528.352 31.79C529.054 31.79 529.675 31.6312 530.233 31.3295C530.791 31.0277 531.221 30.5989 531.539 30.0589C531.858 29.5189 532.017 28.9154 532.017 28.2325C532.017 27.5496 531.858 26.9302 531.539 26.3902ZM530.966 29.7571C530.711 30.2018 530.36 30.5512 529.898 30.8053C529.436 31.0595 528.926 31.1865 528.352 31.1865C527.779 31.1865 527.253 31.0595 526.791 30.8053C526.329 30.5512 525.978 30.2018 525.723 29.7571C525.468 29.3125 525.341 28.8042 525.341 28.2325C525.341 27.6607 525.468 27.1525 525.723 26.7078C525.978 26.2631 526.329 25.9137 526.791 25.6596C527.253 25.4055 527.763 25.2785 528.352 25.2785C528.942 25.2785 529.452 25.4055 529.898 25.6596C530.36 25.9137 530.711 26.2631 530.966 26.7078C531.221 27.1525 531.348 27.6607 531.348 28.2325C531.348 28.8042 531.221 29.2966 530.966 29.7413V29.7571ZM477.202 14.1453C474.907 14.1453 473.218 15.7652 473.218 17.9252C473.218 20.0851 474.891 21.705 477.202 21.705C479.512 21.705 481.233 20.0851 481.233 17.9252C481.233 15.7652 479.56 14.1453 477.202 14.1453ZM529.595 28.169C529.834 27.9943 529.962 27.756 529.962 27.4543C529.962 27.1525 529.85 26.9143 529.611 26.7396C529.372 26.5649 529.022 26.4696 528.576 26.4696H526.982V29.7889H527.747V28.4707H528.161L529.181 29.7889H530.121L529.006 28.3913C529.245 28.3437 529.436 28.2801 529.579 28.169H529.595ZM528.448 27.8672H527.747V27.0572H528.48C528.703 27.0572 528.862 27.089 528.974 27.1525C529.085 27.216 529.149 27.3272 529.149 27.4702C529.149 27.5972 529.085 27.7084 528.974 27.7719C528.846 27.8354 528.671 27.8672 528.448 27.8672ZM480.293 24.9926H474.158C473.935 24.9926 473.823 25.1196 473.823 25.3261V48.4501C473.823 48.6724 473.951 48.7836 474.158 48.7836H480.293C480.516 48.7836 480.628 48.6566 480.628 48.4501V25.3261C480.628 25.1038 480.5 24.9926 480.293 24.9926ZM471.258 42.8279C470.557 43.2091 469.648 43.5267 468.405 43.5267C466.445 43.5267 465.187 42.3832 465.187 39.8421V30.4242H471.178C471.401 30.4242 471.513 30.2971 471.513 30.0907V25.3102C471.513 25.0879 471.385 24.9767 471.178 24.9767H465.187V18.7351C465.187 18.4651 465.011 18.3222 464.772 18.5128L454.064 26.9143C453.921 27.0414 453.873 27.1525 453.873 27.3431V30.0589C453.873 30.2813 454 30.3924 454.207 30.3924H458.382V40.8109C458.382 46.449 461.649 49.0695 466.286 49.0695C468.294 49.0695 470.238 48.5454 471.385 47.8783C471.561 47.7831 471.577 47.6878 471.577 47.5131V42.9708C471.577 42.7326 471.449 42.6532 471.242 42.7803L471.258 42.8279Z"
          fill="currentColor"/>
</svg>
