<svg width="82" height="18" viewBox="0 0 82 18" fill="none" xmlns="http://www.w3.org/2000/svg">
    <path d="M12.9433 10.4155L6.44504 1.26855H0V16.7298H4.34837V6.84316C4.34837 6.3937 4.34054 5.88181 4.32645 5.30749C4.32331 5.18108 4.31862 5.05935 4.31392 4.93606L10.9453 14.1376H14.6376L21.3833 4.75347C21.377 4.93138 21.3723 5.11241 21.3676 5.29657C21.3535 5.87713 21.3457 6.39214 21.3457 6.84316V16.7298H25.694V1.26855H19.4244L12.9449 10.4155H12.9433Z"
          fill="white"/>
    <path d="M46.7111 1.82425C44.9338 1.13445 42.8951 0.789551 40.5933 0.789551C38.2915 0.789551 36.2527 1.13445 34.4755 1.82425C32.6983 2.51406 31.3187 3.47854 30.3354 4.72081C29.352 5.96152 28.8604 7.38794 28.8604 9.00008C28.8604 10.6122 29.352 12.0371 30.3354 13.2794C31.3187 14.5201 32.6983 15.4861 34.4755 16.1759C36.2527 16.8657 38.2915 17.2106 40.5933 17.2106C42.8951 17.2106 44.9338 16.8657 46.7111 16.1759C48.4883 15.4861 49.8678 14.5216 50.8512 13.2794C51.8345 12.0387 52.3262 10.6122 52.3262 9.00008C52.3262 7.38794 51.8345 5.96308 50.8512 4.72081C49.8678 3.4801 48.4883 2.51406 46.7111 1.82425ZM46.8426 11.547C46.246 12.2868 45.4036 12.8611 44.3184 13.2669C43.2333 13.6742 41.9916 13.8771 40.5933 13.8771C39.195 13.8771 37.9532 13.6742 36.8681 13.2669C35.783 12.8611 34.9374 12.2868 34.333 11.547C33.7286 10.8073 33.4264 9.95676 33.4264 9.00008C33.4264 8.04341 33.7286 7.19286 34.333 6.45156C34.9374 5.71181 35.7814 5.1375 36.8681 4.73173C37.9532 4.32596 39.195 4.12152 40.5933 4.12152C41.9916 4.12152 43.2333 4.3244 44.3184 4.73173C45.4036 5.13906 46.2444 5.71181 46.8426 6.45156C47.4392 7.1913 47.7383 8.04185 47.7383 9.00008C47.7383 9.95832 47.4392 10.8073 46.8426 11.547Z"
          fill="white"/>
    <path d="M74.8945 1.27026L68.415 10.4172L61.9167 1.27026H55.4717V16.7315H59.82V6.84487C59.82 6.39541 59.8122 5.88352 59.7981 5.3092C59.795 5.18279 59.7903 5.06106 59.7856 4.93777L66.417 14.1393H70.1093L76.8549 4.75518C76.8487 4.93309 76.844 5.11412 76.8393 5.29828C76.8252 5.87884 76.8174 6.39385 76.8174 6.84487V16.7315H81.1657V1.27026H74.8961H74.8945Z"
          fill="white"/>
</svg>
