<svg width="16" height="16" viewBox="0 0 16 16" fill="none" xmlns="http://www.w3.org/2000/svg">
    <path d="M11.334 14.6666C10.7784 14.6666 10.3062 14.4721 9.91732 14.0833C9.52843 13.6944 9.33398 13.2221 9.33398 12.6666C9.33398 12.5999 9.35065 12.4444 9.38398 12.1999L4.70065 9.46658C4.52287 9.63325 4.31732 9.76392 4.08398 9.85858C3.85065 9.95325 3.60065 10.0004 3.33398 9.99992C2.77843 9.99992 2.30621 9.80547 1.91732 9.41658C1.52843 9.0277 1.33398 8.55547 1.33398 7.99992C1.33398 7.44436 1.52843 6.97214 1.91732 6.58325C2.30621 6.19436 2.77843 5.99992 3.33398 5.99992C3.60065 5.99992 3.85065 6.04725 4.08398 6.14192C4.31732 6.23659 4.52287 6.36703 4.70065 6.53325L9.38398 3.79992C9.36176 3.72214 9.34798 3.64725 9.34265 3.57525C9.33732 3.50325 9.33443 3.42259 9.33398 3.33325C9.33398 2.7777 9.52843 2.30547 9.91732 1.91659C10.3062 1.5277 10.7784 1.33325 11.334 1.33325C11.8895 1.33325 12.3618 1.5277 12.7507 1.91659C13.1395 2.30547 13.334 2.7777 13.334 3.33325C13.334 3.88881 13.1395 4.36103 12.7507 4.74992C12.3618 5.13881 11.8895 5.33325 11.334 5.33325C11.0673 5.33325 10.8173 5.28592 10.584 5.19125C10.3507 5.09659 10.1451 4.96614 9.96732 4.79992L5.28398 7.53325C5.30621 7.61103 5.32021 7.68614 5.32598 7.75858C5.33176 7.83103 5.33443 7.91147 5.33398 7.99992C5.33354 8.08836 5.33087 8.16903 5.32598 8.24192C5.3211 8.31481 5.3071 8.3897 5.28398 8.46658L9.96732 11.1999C10.1451 11.0333 10.3507 10.9028 10.584 10.8086C10.8173 10.7144 11.0673 10.667 11.334 10.6666C11.8895 10.6666 12.3618 10.861 12.7507 11.2499C13.1395 11.6388 13.334 12.111 13.334 12.6666C13.334 13.2221 13.1395 13.6944 12.7507 14.0833C12.3618 14.4721 11.8895 14.6666 11.334 14.6666Z"
          fill="currentColor"/>
</svg>
