<svg width="34" height="34" viewBox="0 0 34 34" fill="none" xmlns="http://www.w3.org/2000/svg">
    <path d="M26.8333 15.1666C21.5 11.9999 12.5833 11.6666 7.50001 13.2499C6.66668 13.4999 5.83334 12.9999 5.58334 12.2499C5.33334 11.4166 5.83334 10.5833 6.58334 10.3333C12.5 8.58325 22.25 8.91659 28.4167 12.5833C29.1667 12.9999 29.4167 13.9999 29 14.7499C28.5833 15.3333 27.5833 15.5833 26.8333 15.1666ZM26.6667 19.8333C26.25 20.4166 25.5 20.6666 24.9167 20.2499C20.4167 17.4999 13.5833 16.6666 8.33334 18.3333C7.66668 18.4999 6.91668 18.1666 6.75001 17.4999C6.58334 16.8333 6.91668 16.0833 7.58334 15.9166C13.6667 14.0833 21.1667 14.9999 26.3333 18.1666C26.8333 18.4166 27.0833 19.2499 26.6667 19.8333ZM24.6667 24.4166C24.3333 24.9166 23.75 25.0833 23.25 24.7499C19.3333 22.3333 14.4167 21.8333 8.58334 23.1666C8.00001 23.3333 7.50001 22.9166 7.33334 22.4166C7.16668 21.8333 7.58334 21.3333 8.08334 21.1666C14.4167 19.7499 19.9167 20.3333 24.25 22.9999C24.8333 23.2499 24.9167 23.9166 24.6667 24.4166ZM17 0.333252C14.8113 0.333252 12.644 0.764348 10.622 1.60193C8.59986 2.4395 6.76254 3.66716 5.2149 5.21481C2.08929 8.34041 0.333344 12.5796 0.333344 16.9999C0.333344 21.4202 2.08929 25.6594 5.2149 28.785C6.76254 30.3327 8.59986 31.5603 10.622 32.3979C12.644 33.2355 14.8113 33.6666 17 33.6666C21.4203 33.6666 25.6595 31.9106 28.7851 28.785C31.9107 25.6594 33.6667 21.4202 33.6667 16.9999C33.6667 14.8112 33.2356 12.644 32.398 10.6219C31.5604 8.59977 30.3328 6.76245 28.7851 5.21481C27.2375 3.66716 25.4002 2.4395 23.3781 1.60193C21.356 0.764348 19.1887 0.333252 17 0.333252Z"
          fill="currentColor"/>
</svg>
