<svg width="25" height="24" viewBox="0 0 25 24" fill="none" xmlns="http://www.w3.org/2000/svg">
    <path d="M19.4902 4.91005C18.5733 3.98416 17.4813 3.25002 16.2777 2.75042C15.0742 2.25081 13.7833 1.99574 12.4802 2.00005C7.02023 2.00005 2.57023 6.45005 2.57023 11.9101C2.57023 13.6601 3.03023 15.3601 3.89023 16.8601L2.49023 22.0001L7.74023 20.6201C9.19023 21.4101 10.8202 21.8301 12.4802 21.8301C17.9402 21.8301 22.3902 17.3801 22.3902 11.9201C22.3902 9.27005 21.3602 6.78005 19.4902 4.91005ZM12.4802 20.1501C11.0002 20.1501 9.55023 19.7501 8.28023 19.0001L7.98023 18.8201L4.86023 19.6401L5.69023 16.6001L5.49023 16.2901C4.66778 14.9771 4.23116 13.4593 4.23023 11.9101C4.23023 7.37005 7.93023 3.67005 12.4702 3.67005C14.6702 3.67005 16.7402 4.53005 18.2902 6.09005C19.0579 6.85392 19.6662 7.7626 20.0799 8.76338C20.4936 9.76417 20.7044 10.8371 20.7002 11.9201C20.7202 16.4601 17.0202 20.1501 12.4802 20.1501ZM17.0002 13.9901C16.7502 13.8701 15.5302 13.2701 15.3102 13.1801C15.0802 13.1001 14.9202 13.0601 14.7502 13.3001C14.5802 13.5501 14.1102 14.1101 13.9702 14.2701C13.8302 14.4401 13.6802 14.4601 13.4302 14.3301C13.1802 14.2101 12.3802 13.9401 11.4402 13.1001C10.7002 12.4401 10.2102 11.6301 10.0602 11.3801C9.92023 11.1301 10.0402 11.0001 10.1702 10.8701C10.2802 10.7601 10.4202 10.5801 10.5402 10.4401C10.6602 10.3001 10.7102 10.1901 10.7902 10.0301C10.8702 9.86005 10.8302 9.72005 10.7702 9.60005C10.7102 9.48005 10.2102 8.26005 10.0102 7.76005C9.81023 7.28005 9.60023 7.34005 9.45023 7.33005H8.97023C8.80023 7.33005 8.54023 7.39005 8.31023 7.64005C8.09023 7.89005 7.45023 8.49005 7.45023 9.71005C7.45023 10.9301 8.34023 12.1101 8.46023 12.2701C8.58023 12.4401 10.2102 14.9401 12.6902 16.0101C13.2802 16.2701 13.7402 16.4201 14.1002 16.5301C14.6902 16.7201 15.2302 16.6901 15.6602 16.6301C16.1402 16.5601 17.1302 16.0301 17.3302 15.4501C17.5402 14.8701 17.5402 14.3801 17.4702 14.2701C17.4002 14.1601 17.2502 14.1101 17.0002 13.9901Z"
          fill="currentColor"/>
</svg>
